<?xml version="1.0" standalone="no"?>
<!DOCTYPE svg PUBLIC "-//W3C//DTD SVG 20010904//EN"
 "http://www.w3.org/TR/2001/REC-SVG-20010904/DTD/svg10.dtd">
<svg version="1.0" xmlns="http://www.w3.org/2000/svg"
 width="2133.000000pt" height="2133.000000pt" viewBox="0 0 2133.000000 2133.000000"
 preserveAspectRatio="xMidYMid meet">

<g transform="translate(0.000000,2133.000000) scale(0.100000,-0.100000)"
fill="#000000" stroke="none">
<path d="M10350 21324 c-577 -68 -1038 -281 -1434 -664 -452 -438 -704 -1003
-723 -1624 -6 -173 -5 -179 13 -172 10 4 92 32 182 62 1482 489 3111 484 4597
-16 82 -27 151 -50 154 -50 2 0 1 80 -2 178 -19 619 -272 1185 -723 1622 -357
345 -768 553 -1269 642 -103 18 -166 21 -440 23 -176 2 -336 1 -355 -1z"/>
<path d="M10250 18029 c-1690 -121 -3244 -936 -4304 -2257 -645 -805 -1079
-1778 -1245 -2792 -60 -363 -81 -639 -81 -1055 0 -472 -24 -1190 -56 -1655
-165 -2480 -720 -4418 -1567 -5483 -156 -197 -367 -396 -478 -453 -68 -34
-177 -140 -222 -215 -118 -200 -113 -461 14 -656 81 -125 231 -229 384 -268
53 -13 948 -15 7970 -15 7022 0 7917 2 7970 15 153 39 303 143 384 268 127
195 132 456 14 656 -45 75 -154 181 -222 215 -111 57 -322 256 -478 453 -674
848 -1172 2270 -1422 4063 -128 917 -180 1688 -201 2975 -6 377 -15 624 -25
730 -142 1439 -762 2743 -1782 3746 -1044 1027 -2376 1626 -3848 1729 -163 11
-639 11 -805 -1z"/>
<path d="M7720 1914 c0 -16 158 -313 215 -404 163 -259 435 -570 668 -763 480
-398 1035 -640 1665 -724 177 -24 617 -24 794 0 555 74 1040 265 1488 587 316
226 636 567 845 900 57 91 215 388 215 404 0 3 -1325 6 -2945 6 -1620 0 -2945
-3 -2945 -6z"/>
</g>
</svg>
