<svg xmlns="http://www.w3.org/2000/svg" xmlns:xlink="http://www.w3.org/1999/xlink" id="Layer_1"
    enable-background="new 0 0 3872.983 3872.983" height="512" viewBox="0 0 3872.983 3872.983"
    width="512">
    <linearGradient id="lg1" fill="#000000">
        <stop offset="0" stop-color="#000000" fill="#000000" />
        <stop offset="1" stop-color="#000000" fill="#000000" />
    </linearGradient>
    <linearGradient id="SVGID_1_" gradientUnits="userSpaceOnUse" x1="558.976" x2="3658.512"
        xlink:href="#lg1" y1="3687.595" y2="588.059" fill="#000000" />
    <linearGradient id="SVGID_2_" gradientUnits="userSpaceOnUse" x1="617.726" x2="1161.413"
        xlink:href="#lg1" y1="1090.806" y2="547.119" fill="#000000" />
    <linearGradient id="SVGID_3_" gradientUnits="userSpaceOnUse" x1="1058.957" x2="1602.644"
        xlink:href="#lg1" y1="1090.806" y2="547.118" fill="#000000" />
    <linearGradient id="SVGID_4_" gradientUnits="userSpaceOnUse" x1="1500.185" x2="2043.873"
        xlink:href="#lg1" y1="1090.806" y2="547.119" fill="#000000" />
    <g>
        <path
            d="m3293.384 1056.307c91.284-.006 178.6-35.836 243.915-101.131 65.254-65.211 101.191-151.922 101.191-244.157 0-92.233-35.935-178.948-101.191-244.174-134.7-134.609-353.867-134.611-488.569 0-66.692 66.648-102.661 156.145-101.152 249.389l-865.594 804.497h-1786.972c-16.048 0-31.442 6.377-42.79 17.725-11.349 11.349-17.725 26.74-17.725 42.79 0 209.421 41.056 412.607 122.025 603.919 78.195 184.751 190.126 350.66 332.681 493.121 142.553 142.457 308.57 254.31 493.437 332.451.72.304 1.442.603 2.162.906h-640.137c-132.472 0-240.246 107.774-240.246 240.246v81.794c0 132.472 107.774 240.246 240.246 240.246h2484.513c132.472 0 240.246-107.774 240.246-240.246v-81.794c0-132.472-107.774-240.246-240.246-240.246h-640.139c.72-.303 1.442-.601 2.161-.906 184.867-78.14 350.883-189.994 493.437-332.451 142.555-142.461 254.484-308.371 332.679-493.121 80.972-191.312 122.027-394.5 122.027-603.919 0-33.421-27.094-60.515-60.515-60.515h-423.337l432.252-464.471c1.88.032 3.765.047 5.641.047zm-264.206 2076.367c65.737 0 119.215 53.479 119.215 119.215v81.794c0 65.737-53.479 119.215-119.215 119.215h-2484.513c-65.737 0-119.215-53.479-119.215-119.215v-81.794c0-65.737 53.48-119.215 119.215-119.215zm-1242.258-121.03c-608.513 0-1129.539-381.417-1336.281-917.572h2672.562c-206.743 536.155-727.768 917.572-1336.281 917.572zm1376.797-1038.603h-2753.594c-30.238-105.964-48.546-216.903-53.332-331.278h2860.259c-4.786 114.375-23.094 225.314-53.333 331.278zm102.076-1039.306c-.034 0-.07-.002-.108-.004-.683-.032-1.371-.055-2.059-.062-.006 0-.013 0-.021 0-.064 0-.123 0-.191-.002-.043 0-.089 0-.129 0-.051 0-.111 0-.17 0-.042 0-.089 0-.13 0-.053.002-.106 0-.161 0-17.937 0-34.045 7.801-45.124 20.199l-527.546 566.866h-430.39l790.05-734.286c1.696-1.501 3.313-3.107 4.845-4.809 11.475-12.757 16.996-29.789 15.186-46.854-7.186-67.766 16.299-134.221 64.437-182.327 87.524-87.467 229.936-87.464 317.456-.006 42.378 42.361 65.718 98.674 65.718 158.569 0 59.893-23.338 116.199-65.722 158.554-48.129 48.113-114.65 71.592-182.531 64.424-1.13-.118-2.268-.205-3.41-.262z"
            fill="url(#SVGID_1_)" />
        <path
            d="m725.199 1052.791c3.4 156.776 120.62 266.305 125.632 270.959 10.917 10.023 24.876 15.034 38.656 15.034 15.392 0 30.781-6.263 42.234-18.432 21.475-23.266 19.864-59.417-3.4-80.894-.894-.715-86.261-82.146-88.587-188.991-1.252-65.323 28.993-129.573 90.376-190.96 84.292-84.296 125.991-176.465 123.843-274.362-3.4-156.776-120.62-266.305-125.632-270.96-23.264-21.477-59.415-19.866-80.89 3.4s-19.864 59.417 3.4 80.894c.894.715 86.261 82.146 88.587 188.991 1.252 65.323-28.993 129.573-90.376 190.96-84.292 84.296-125.991 176.465-123.843 274.361z"
            fill="url(#SVGID_2_)" />
        <path
            d="m1166.43 1052.791c3.4 156.776 120.62 266.305 125.632 270.959 10.917 10.023 24.875 15.034 38.656 15.034 15.39 0 30.78-6.263 42.234-18.432 21.475-23.266 19.864-59.417-3.4-80.894-.895-.715-86.261-82.146-88.587-188.991-1.252-65.323 28.993-129.573 90.376-190.96 84.292-84.296 125.991-176.465 123.843-274.362-3.4-156.776-120.62-266.305-125.632-270.96-23.264-21.477-59.415-19.866-80.89 3.4s-19.864 59.417 3.4 80.894c.895.715 86.261 82.146 88.587 188.991 1.252 65.323-28.993 129.573-90.376 190.96-84.293 84.296-125.991 176.465-123.843 274.361z"
            fill="url(#SVGID_3_)" />
        <path
            d="m1607.659 1052.791c3.4 156.776 120.62 266.305 125.632 270.959 10.917 10.023 24.876 15.034 38.656 15.034 15.39 0 30.781-6.263 42.234-18.432 21.475-23.266 19.864-59.417-3.4-80.894-.895-.715-86.261-82.146-88.587-188.991-1.252-65.323 28.993-129.573 90.376-190.96 84.292-84.296 125.991-176.465 123.843-274.362-3.4-156.776-120.62-266.305-125.632-270.96-23.264-21.477-59.415-19.866-80.89 3.4s-19.864 59.417 3.4 80.894c.896.715 86.261 82.146 88.587 188.991 1.252 65.323-28.992 129.573-90.376 190.96-84.293 84.296-125.992 176.465-123.843 274.361z"
            fill="url(#SVGID_4_)" />
    </g>
</svg>