<?xml version="1.0" encoding="UTF-8"?>
<svg xmlns="http://www.w3.org/2000/svg" id="Layer_1" data-name="Layer 1" viewBox="0 0 64 64"
    width="512" height="512">
    <path d="M5,46a1,1,0,0,1-1-1V16a1,1,0,0,1,2,0V45A1,1,0,0,1,5,46Z" />
    <path
        d="M32,56a1,1,0,0,1-.895-.553A6.9,6.9,0,0,0,25,52H5a1,1,0,0,1-1-1V48a1,1,0,0,1,2,0v2H25a8.869,8.869,0,0,1,7,3.241A8.869,8.869,0,0,1,39,50H58V17H52a1,1,0,0,1,0-2h7a1,1,0,0,1,1,1V51a1,1,0,0,1-1,1H39a6.943,6.943,0,0,0-6.1,3.447A1,1,0,0,1,32,56Z" />
    <path
        d="M32,21a1,1,0,0,1-.895-.553A6.9,6.9,0,0,0,25,17H24a1,1,0,0,1,0-2h1a8.869,8.869,0,0,1,7,3.241A8.869,8.869,0,0,1,39,15h1a1,1,0,0,1,0,2H39a6.943,6.943,0,0,0-6.1,3.447A1,1,0,0,1,32,21Z" />
    <path
        d="M37,59H27a1,1,0,0,1-.895-.553L25.382,57H1a1,1,0,0,1-1-1V20a1,1,0,0,1,1-1H2a1,1,0,0,1,0,2V55H26a1,1,0,0,1,.895.553L27.618,57h8.764l.723-1.447A1,1,0,0,1,38,55H62V26a1,1,0,0,1,2,0V56a1,1,0,0,1-1,1H38.618L37.9,58.447A1,1,0,0,1,37,59Z" />
    <path d="M63,24a1,1,0,0,1-1-1V21a1,1,0,0,1,0-2h1a1,1,0,0,1,1,1v3A1,1,0,0,1,63,24Z" />
    <path
        d="M50,22a1,1,0,0,1-1-1,14,14,0,0,0-28,0,1,1,0,0,1-2,0,16,16,0,0,1,32,0A1,1,0,0,1,50,22Z" />
    <path
        d="M44,22a1,1,0,0,1-1-1A13.939,13.939,0,0,0,36.466,9.155a1,1,0,1,1,1.068-1.691A15.931,15.931,0,0,1,45,21,1,1,0,0,1,44,22Z" />
    <path
        d="M14,22a1,1,0,0,1-1-1A16.1,16.1,0,0,1,23.244,6.066a1,1,0,0,1,.721,1.867A14.09,14.09,0,0,0,15,21,1,1,0,0,1,14,22Z" />
    <path
        d="M17,38a9,9,0,1,1,5.626-16.025,1,1,0,0,1-1.252,1.56A6.922,6.922,0,0,0,17,22a6.995,6.995,0,1,0,6.126,3.609,1,1,0,0,1,1.748-.97A9,9,0,0,1,17,38Z" />
    <path
        d="M47,38a9,9,0,1,1,5.626-16.025,1,1,0,0,1-1.252,1.56A6.922,6.922,0,0,0,47,22a7,7,0,1,0,6.126,3.61,1,1,0,1,1,1.748-.971A9,9,0,0,1,47,38Z" />
    <path
        d="M17,35a6,6,0,0,1,0-12,1,1,0,0,1,0,2,4,4,0,1,0,4,4,1,1,0,0,1,2,0A6.006,6.006,0,0,1,17,35Z" />
    <path
        d="M47,35a6,6,0,0,1,0-12,1,1,0,0,1,0,2,4,4,0,1,0,4,4,1,1,0,0,1,2,0A6.006,6.006,0,0,1,47,35Z" />
    <path d="M47,44H37a1,1,0,0,1,0-2h9V37a1,1,0,0,1,2,0v6A1,1,0,0,1,47,44Z" />
    <path
        d="M37,46H31a1,1,0,0,1-1-1V41a1,1,0,0,1,1-1h6a1,1,0,0,1,1,1v4A1,1,0,0,1,37,46Zm-5-2h4V42H32Z" />
    <path d="M32,39a1,1,0,0,1-1-1V20a1,1,0,0,1,2,0V38A1,1,0,0,1,32,39Z" />
    <path d="M32,56a1,1,0,0,1-1-1V48a1,1,0,0,1,2,0v7A1,1,0,0,1,32,56Z" />
    <path d="M11,17H5a1,1,0,0,1,0-2h6a1,1,0,0,1,0,2Z" />
</svg>
