<?xml version="1.0" encoding="UTF-8"?>
<!DOCTYPE svg PUBLIC "-//W3C//DTD SVG 1.1//EN" "http://www.w3.org/Graphics/SVG/1.1/DTD/svg11.dtd">
<svg xmlns="http://www.w3.org/2000/svg" version="1.1" width="96px" height="96px" style="shape-rendering:geometricPrecision; text-rendering:geometricPrecision; image-rendering:optimizeQuality; fill-rule:evenodd; clip-rule:evenodd" xmlns:xlink="http://www.w3.org/1999/xlink">
<g><path style="opacity:0.957" fill="#000000" d="M 16.5,11.5 C 20.8839,11.1744 25.2172,11.5078 29.5,12.5C 30.8333,13.8333 30.8333,15.1667 29.5,16.5C 26.5535,17.3214 23.5535,17.8214 20.5,18C 19.3333,18.5 18.5,19.3333 18,20.5C 17.3333,38.5 17.3333,56.5 18,74.5C 18.5,75.6667 19.3333,76.5 20.5,77C 29.1667,77.3333 37.8333,77.6667 46.5,78C 47.8333,79.6667 47.8333,81.3333 46.5,83C 36.5,83.6667 26.5,83.6667 16.5,83C 14.3333,82.1667 12.8333,80.6667 12,78.5C 11.3333,57.8333 11.3333,37.1667 12,16.5C 13.025,14.313 14.525,12.6464 16.5,11.5 Z"/></g>
<g><path style="opacity:0.96" fill="#000000" d="M 39.5,11.5 C 53.265,11.036 66.9317,11.536 80.5,13C 81.7014,13.9025 82.5348,15.0692 83,16.5C 83.8321,26.1839 83.6655,35.8505 82.5,45.5C 81.1667,46.8333 79.8333,46.8333 78.5,45.5C 77.6683,37.1866 77.1683,28.8532 77,20.5C 76.6924,19.6919 76.1924,19.0253 75.5,18.5C 63.5458,17.6866 51.5458,17.1866 39.5,17C 38.2475,15.1722 38.2475,13.3388 39.5,11.5 Z"/></g>
<g><path style="opacity:0.907" fill="#000000" d="M 37.5,25.5 C 44.1998,25.17 50.8665,25.5033 57.5,26.5C 58.8333,27.8333 58.8333,29.1667 57.5,30.5C 50.8333,31.8333 44.1667,31.8333 37.5,30.5C 36.4647,28.8716 36.4647,27.205 37.5,25.5 Z"/></g>
<g><path style="opacity:0.922" fill="#000000" d="M 95.5,70.5 C 95.5,76.5 95.5,82.5 95.5,88.5C 94.3536,90.475 92.687,91.975 90.5,93C 81.8333,93.6667 73.1667,93.6667 64.5,93C 62.3333,92.1667 60.8333,90.6667 60,88.5C 59.3333,82.1667 59.3333,75.8333 60,69.5C 61.3782,67.7866 63.0448,66.4533 65,65.5C 64.999,51.8282 71.499,46.9948 84.5,51C 88.8288,54.8031 90.6622,59.6364 90,65.5C 92.3549,66.6924 94.1882,68.359 95.5,70.5 Z M 74.5,56.5 C 81.0973,55.7637 84.0973,58.7637 83.5,65.5C 79.5,65.5 75.5,65.5 71.5,65.5C 71.5152,62.1209 72.5152,59.1209 74.5,56.5 Z M 68.5,71.5 C 74.8933,71.2071 81.2266,71.5404 87.5,72.5C 89.7442,76.621 90.0775,80.9544 88.5,85.5C 87.9747,86.1924 87.3081,86.6924 86.5,87C 80.1151,87.7927 73.7818,87.626 67.5,86.5C 65.9873,84.4645 65.3207,82.1312 65.5,79.5C 65.0728,76.1743 66.0728,73.5076 68.5,71.5 Z"/></g>
<g><path style="opacity:0.828" fill="#000000" d="M 74.5,75.5 C 81.1584,74.3445 83.1584,76.8445 80.5,83C 73.7496,84.4689 71.7496,81.9689 74.5,75.5 Z"/></g>
</svg>
