<?xml version="1.0" encoding="UTF-8"?>
<!DOCTYPE svg PUBLIC "-//W3C//DTD SVG 1.1//EN" "http://www.w3.org/Graphics/SVG/1.1/DTD/svg11.dtd">
<svg xmlns="http://www.w3.org/2000/svg" version="1.1" width="96px" height="96px" style="shape-rendering:geometricPrecision; text-rendering:geometricPrecision; image-rendering:optimizeQuality; fill-rule:evenodd; clip-rule:evenodd" xmlns:xlink="http://www.w3.org/1999/xlink">
<g><path style="opacity:0.874" fill="#000000" d="M 47.5,5.5 C 63.9847,3.81742 71.1514,11.1508 69,27.5C 67.0982,32.4005 63.5982,35.5671 58.5,37C 46.8333,37.6667 35.1667,37.6667 23.5,37C 22.1667,35.3333 22.1667,33.6667 23.5,32C 33.5,31.6667 43.5,31.3333 53.5,31C 61.2399,29.7001 64.0732,25.2001 62,17.5C 61.1667,15.3333 59.6667,13.8333 57.5,13C 54.0357,12.1834 50.7024,12.5167 47.5,14C 45.3137,17.2255 43.647,20.7255 42.5,24.5C 41.1667,25.8333 39.8333,25.8333 38.5,24.5C 36.3918,15.7172 39.3918,9.38392 47.5,5.5 Z"/></g>
<g><path style="opacity:0.834" fill="#000000" d="M 9.5,31.5 C 12.8984,31.1796 16.2317,31.513 19.5,32.5C 20.8333,33.8333 20.8333,35.1667 19.5,36.5C 16.1667,37.8333 12.8333,37.8333 9.5,36.5C 8.46471,34.8716 8.46471,33.205 9.5,31.5 Z"/></g>
<g><path style="opacity:0.898" fill="#000000" d="M 9.5,43.5 C 32.1691,43.3334 54.8358,43.5 77.5,44C 87.9791,48.3805 91.8124,56.2138 89,67.5C 84.6195,77.9791 76.7862,81.8124 65.5,79C 60.771,78.0038 59.4377,75.3372 61.5,71C 66.0335,72.1461 70.7002,72.4795 75.5,72C 81.6026,68.9596 83.7693,64.1263 82,57.5C 79.8893,53.0561 76.3893,50.5561 71.5,50C 50.8253,49.8331 30.1586,49.3331 9.5,48.5C 8.46471,46.8716 8.46471,45.205 9.5,43.5 Z"/></g>
<g><path style="opacity:0.931" fill="#000000" d="M 9.5,55.5 C 17.1739,55.3336 24.8406,55.5003 32.5,56C 33.8333,57.6667 33.8333,59.3333 32.5,61C 24.8117,61.8315 17.145,61.6648 9.5,60.5C 8.46471,58.8716 8.46471,57.205 9.5,55.5 Z"/></g>
<g><path style="opacity:0.826" fill="#000000" d="M 39.5,56.5 C 44.0898,57.9213 47.2565,60.9213 49,65.5C 50.3672,84.7938 41.8672,91.2938 23.5,85C 17.9202,80.6764 16.2535,75.1764 18.5,68.5C 19.8333,67.1667 21.1667,67.1667 22.5,68.5C 23.647,72.2745 25.3137,75.7745 27.5,79C 40,82.5 44.5,78 41,65.5C 36.0184,62.8328 35.5184,59.8328 39.5,56.5 Z"/></g>
<g><path style="opacity:0.794" fill="#000000" d="M 55.5,57.5 C 56.7079,58.2341 58.0413,58.5674 59.5,58.5C 60.412,62.1306 60.5787,65.7973 60,69.5C 57.2242,71.1397 55.2242,70.473 54,67.5C 53.063,63.8326 53.563,60.4993 55.5,57.5 Z"/></g>
</svg>
