<?xml version="1.0" encoding="UTF-8"?>
<!DOCTYPE svg PUBLIC "-//W3C//DTD SVG 1.1//EN" "http://www.w3.org/Graphics/SVG/1.1/DTD/svg11.dtd">
<svg xmlns="http://www.w3.org/2000/svg" version="1.1" width="96px" height="96px" style="shape-rendering:geometricPrecision; text-rendering:geometricPrecision; image-rendering:optimizeQuality; fill-rule:evenodd; clip-rule:evenodd" xmlns:xlink="http://www.w3.org/1999/xlink">
<g><path style="opacity:0.944" fill="#000000" d="M 15.5,13.5 C 36.8359,13.3334 58.1693,13.5 79.5,14C 83.3333,15.1667 85.8333,17.6667 87,21.5C 87.4998,31.828 87.6665,42.1613 87.5,52.5C 85.5,52.5 83.5,52.5 81.5,52.5C 81.6664,43.8269 81.4998,35.1603 81,26.5C 80.5,22.6667 78.3333,20.5 74.5,20C 56.5,19.3333 38.5,19.3333 20.5,20C 18.5789,20.3603 16.9122,21.1936 15.5,22.5C 13.9467,27.0156 13.1134,31.6822 13,36.5C 11.3333,37.8333 9.66667,37.8333 8,36.5C 6.85891,29.9159 7.52557,23.5826 10,17.5C 11.8121,16.0229 13.6455,14.6896 15.5,13.5 Z"/></g>
<g><path style="opacity:0.889" fill="#000000" d="M 21.5,29.5 C 25.5,29.5 29.5,29.5 33.5,29.5C 33.5,31.5 33.5,33.5 33.5,35.5C 29.5,35.5 25.5,35.5 21.5,35.5C 21.5,33.5 21.5,31.5 21.5,29.5 Z"/></g>
<g><path style="opacity:0.83" fill="#000000" d="M 49.5,29.5 C 67.3171,27.8165 75.1505,35.8165 73,53.5C 68.3496,63.5746 60.5162,67.4079 49.5,65C 38.1476,59.4415 34.6476,50.6082 39,38.5C 41.5054,34.1888 45.0054,31.1888 49.5,29.5 Z M 51.5,36.5 C 62.3181,35.8169 67.1514,40.8169 66,51.5C 62.9596,57.6026 58.1263,59.7693 51.5,58C 45.3974,54.9596 43.2307,50.1263 45,43.5C 46.6941,40.6424 48.8607,38.309 51.5,36.5 Z"/></g>
<g><path style="opacity:0.944" fill="#000000" d="M 7.5,42.5 C 9.5,42.5 11.5,42.5 13.5,42.5C 13.3336,51.1731 13.5002,59.8397 14,68.5C 14.5,72.3333 16.6667,74.5 20.5,75C 38.5,75.6667 56.5,75.6667 74.5,75C 76.9306,74.7051 78.764,73.5384 80,71.5C 80.9823,66.8742 81.8157,62.2076 82.5,57.5C 83.8333,56.1667 85.1667,56.1667 86.5,57.5C 87.6628,62.8023 87.8295,68.1357 87,73.5C 85.8333,77.3333 83.3333,79.8333 79.5,81C 58.1667,81.6667 36.8333,81.6667 15.5,81C 11.6667,79.8333 9.16667,77.3333 8,73.5C 7.50017,63.172 7.33351,52.8387 7.5,42.5 Z"/></g>
</svg>
