<?xml version="1.0" standalone="no"?>
<!DOCTYPE svg PUBLIC "-//W3C//DTD SVG 20010904//EN"
 "http://www.w3.org/TR/2001/REC-SVG-20010904/DTD/svg10.dtd">
<svg version="1.0" xmlns="http://www.w3.org/2000/svg"
 width="96.000000pt" height="96.000000pt" viewBox="0 0 96.000000 96.000000"
 preserveAspectRatio="xMidYMid meet">

<g transform="translate(0.000000,96.000000) scale(0.100000,-0.100000)"
fill="#000000" stroke="none">
<path d="M431 886 c-19 -20 -31 -42 -29 -52 5 -28 43 -29 62 -3 l15 22 20 -24
c31 -36 81 -139 81 -166 0 -13 -7 -38 -16 -55 l-16 -32 -13 37 c-15 45 -42 87
-55 87 -13 0 -40 -42 -55 -87 l-13 -38 -18 38 c-16 33 -16 44 -6 83 14 51 10
64 -18 64 -23 0 -37 -24 -46 -78 -11 -72 30 -145 99 -171 21 -8 27 -17 27 -41
l0 -30 -64 0 c-55 0 -75 -6 -145 -41 -118 -59 -121 -64 -121 -176 0 -86 2 -96
25 -118 17 -18 35 -25 63 -25 73 0 80 55 9 62 l-32 3 -3 77 -3 77 80 41 81 40
145 0 c85 0 155 -5 166 -11 15 -7 24 -7 35 2 41 34 -18 69 -116 69 l-60 0 0
30 c0 24 6 33 28 41 67 26 109 99 98 171 -14 84 -114 238 -155 238 -9 0 -32
-15 -50 -34z"/>
<path d="M752 358 c-17 -17 -15 -24 8 -46 18 -17 21 -29 18 -93 l-3 -74 -225
-5 -225 -5 0 -25 0 -25 233 -3 233 -2 24 24 c23 23 25 32 25 119 0 89 -2 96
-26 121 -29 29 -44 32 -62 14z"/>
</g>
</svg>
