<?xml version="1.0" encoding="UTF-8"?>
<!DOCTYPE svg PUBLIC "-//W3C//DTD SVG 1.1//EN" "http://www.w3.org/Graphics/SVG/1.1/DTD/svg11.dtd">
<svg xmlns="http://www.w3.org/2000/svg" version="1.1" width="96px" height="96px" style="shape-rendering:geometricPrecision; text-rendering:geometricPrecision; image-rendering:optimizeQuality; fill-rule:evenodd; clip-rule:evenodd" xmlns:xlink="http://www.w3.org/1999/xlink">
<g><path style="opacity:0.908" fill="#000000" d="M 44.5,7.5 C 47.8984,7.17964 51.2317,7.51298 54.5,8.5C 55.8333,9.83333 55.8333,11.1667 54.5,12.5C 52.314,13.2208 50.1474,13.8875 48,14.5C 47.3333,17.8333 47.3333,21.1667 48,24.5C 51.7454,25.297 55.5787,25.797 59.5,26C 61.5,29.3333 63.5,29.3333 65.5,26C 69.1667,25.6667 72.8333,25.3333 76.5,25C 77.6219,21.5915 77.7886,18.0915 77,14.5C 71.2199,13.853 65.3866,13.1864 59.5,12.5C 58.1667,11.1667 58.1667,9.83333 59.5,8.5C 66.4763,7.33559 73.4763,7.16892 80.5,8C 81.3333,8.83333 82.1667,9.66667 83,10.5C 83.6667,16.5 83.6667,22.5 83,28.5C 82.1667,29.3333 81.3333,30.1667 80.5,31C 74.2266,30.1019 69.2266,32.1019 65.5,37C 63.5,37.6667 61.5,37.6667 59.5,37C 55.7734,32.1019 50.7734,30.1019 44.5,31C 43.6667,30.1667 42.8333,29.3333 42,28.5C 41.3333,22.5 41.3333,16.5 42,10.5C 43.045,9.62656 43.8783,8.62656 44.5,7.5 Z"/></g>
<g><path style="opacity:0.827" fill="#000000" d="M 14.5,37.5 C 26.6602,35.4928 31.4935,40.4928 29,52.5C 27.0633,56.3861 23.8966,58.0528 19.5,57.5C 16.1392,57.8881 13.3059,56.8881 11,54.5C 9.47958,50.6251 9.14625,46.6251 10,42.5C 11.025,40.313 12.525,38.6464 14.5,37.5 Z M 17.5,44.5 C 22.1585,44.0146 23.4919,45.848 21.5,50C 16.7282,50.8104 15.3948,48.9771 17.5,44.5 Z"/></g>
<g><path style="opacity:0.833" fill="#000000" d="M 42.5,37.5 C 44.8568,37.3367 47.1902,37.5034 49.5,38C 50.8333,39.6667 50.8333,41.3333 49.5,43C 42.4544,44.3842 40.7877,48.0509 44.5,54C 46.5,54.6667 48.5,54.6667 50.5,54C 52.0769,51.436 53.0769,48.6026 53.5,45.5C 55.3529,44.2404 57.1862,44.2404 59,45.5C 60.3346,57.8304 54.8346,62.997 42.5,61C 35.9298,57.3449 33.7632,51.8449 36,44.5C 37.6941,41.6424 39.8607,39.309 42.5,37.5 Z"/></g>
<g><path style="opacity:0.827" fill="#000000" d="M 70.5,37.5 C 82.6602,35.4928 87.4935,40.4928 85,52.5C 83.0633,56.3861 79.8966,58.0528 75.5,57.5C 72.1392,57.8881 69.3059,56.8881 67,54.5C 65.4796,50.6251 65.1462,46.6251 66,42.5C 67.025,40.313 68.525,38.6464 70.5,37.5 Z M 73.5,44.5 C 78.1585,44.0146 79.4919,45.848 77.5,50C 72.7282,50.8104 71.3948,48.9771 73.5,44.5 Z"/></g>
<g><path style="opacity:0.859" fill="#000000" d="M 8.5,61.5 C 14.8682,61.1703 21.2015,61.5037 27.5,62.5C 28.8333,63.8333 28.8333,65.1667 27.5,66.5C 21.8348,67.3087 16.1682,67.9754 10.5,68.5C 10.238,69.9778 10.5713,71.3112 11.5,72.5C 15.3087,74.0929 19.3087,74.9262 23.5,75C 26.9101,80.4549 25.2434,82.6215 18.5,81.5C 6.21294,81.7326 1.71294,76.066 5,64.5C 6.14508,63.3636 7.31174,62.3636 8.5,61.5 Z"/></g>
<g><path style="opacity:0.853" fill="#000000" d="M 67.5,61.5 C 73.8421,61.3338 80.1754,61.5005 86.5,62C 91.1549,64.8966 92.6549,69.0633 91,74.5C 89.332,78.1655 86.4987,80.3322 82.5,81C 78.5,81.6667 74.5,81.6667 70.5,81C 69.0652,78.7328 69.3985,76.7328 71.5,75C 75.6913,74.9262 79.6913,74.0929 83.5,72.5C 84.4287,71.3112 84.762,69.9778 84.5,68.5C 78.8318,67.9754 73.1652,67.3087 67.5,66.5C 66.4647,64.8716 66.4647,63.205 67.5,61.5 Z"/></g>
<g><path style="opacity:0.863" fill="#000000" d="M 34.5,65.5 C 43.1731,65.3336 51.8397,65.5002 60.5,66C 65.2205,69.2985 66.7205,73.7985 65,79.5C 62.9232,84.1212 59.4232,85.9546 54.5,85C 52.8112,81.3149 53.9779,78.8149 58,77.5C 58.7203,75.8876 58.5536,74.3876 57.5,73C 51.6123,71.424 45.6123,71.0906 39.5,72C 36.8003,72.9492 35.967,74.7825 37,77.5C 40.6575,79.7802 44.6575,81.1135 49,81.5C 51.2822,82.7115 51.7822,84.3781 50.5,86.5C 41.9042,89.1105 35.0709,86.7772 30,79.5C 28.3106,73.6547 29.8106,68.988 34.5,65.5 Z"/></g>
</svg>
