<?xml version="1.0" encoding="UTF-8"?>
<!DOCTYPE svg PUBLIC "-//W3C//DTD SVG 1.1//EN" "http://www.w3.org/Graphics/SVG/1.1/DTD/svg11.dtd">
<svg xmlns="http://www.w3.org/2000/svg" version="1.1" width="96px" height="96px" style="shape-rendering:geometricPrecision; text-rendering:geometricPrecision; image-rendering:optimizeQuality; fill-rule:evenodd; clip-rule:evenodd" xmlns:xlink="http://www.w3.org/1999/xlink">
<g><path style="opacity:0.92" fill="#000000" d="M 35.5,7.5 C 43.5069,7.33362 51.5069,7.50029 59.5,8C 63.6192,12.7184 68.9525,14.7184 75.5,14C 76.6667,15.1667 77.8333,16.3333 79,17.5C 79.4999,34.1633 79.6666,50.83 79.5,67.5C 77.5,67.5 75.5,67.5 73.5,67.5C 73.8174,52.1185 73.4841,36.7851 72.5,21.5C 69.7362,19.3919 66.7362,19.0585 63.5,20.5C 60.6912,24.8663 56.6912,26.533 51.5,25.5C 51.5,23.5 51.5,21.5 51.5,19.5C 55.5273,19.7404 56.8607,18.0737 55.5,14.5C 50.5544,13.3857 45.5544,13.219 40.5,14C 38.503,15.1531 38.1696,16.6531 39.5,18.5C 42.1767,19.0742 44.8434,19.7408 47.5,20.5C 48.8333,21.8333 48.8333,23.1667 47.5,24.5C 35.3644,28.1881 30.1977,23.8548 32,11.5C 33.3756,10.2949 34.5423,8.9616 35.5,7.5 Z"/></g>
<g><path style="opacity:0.954" fill="#000000" d="M 19.5,13.5 C 22.1667,13.5 24.8333,13.5 27.5,13.5C 27.5,15.5 27.5,17.5 27.5,19.5C 25.0072,19.3291 23.1739,20.3291 22,22.5C 21.1797,41.5436 21.3463,60.5436 22.5,79.5C 23.0253,80.1924 23.6919,80.6924 24.5,81C 39.8333,81.6667 55.1667,81.6667 70.5,81C 72.8859,79.1561 74.0526,76.6561 74,73.5C 75.6667,72.1667 77.3333,72.1667 79,73.5C 79.6667,76.8333 79.6667,80.1667 79,83.5C 77.786,85.0488 76.286,86.2155 74.5,87C 56.1667,87.6667 37.8333,87.6667 19.5,87C 17.9512,85.786 16.7845,84.286 16,82.5C 15.3333,60.8333 15.3333,39.1667 16,17.5C 17.3756,16.2949 18.5423,14.9616 19.5,13.5 Z"/></g>
<g><path style="opacity:0.961" fill="#000000" d="M 51.5,33.5 C 56.1785,33.3342 60.8452,33.5008 65.5,34C 66,34.5 66.5,35 67,35.5C 67.6667,40.1667 67.6667,44.8333 67,49.5C 66.5,50 66,50.5 65.5,51C 60.8333,51.6667 56.1667,51.6667 51.5,51C 51,50.5 50.5,50 50,49.5C 48.9456,43.8855 49.4456,38.5522 51.5,33.5 Z M 55.5,39.5 C 57.5,39.5 59.5,39.5 61.5,39.5C 61.5,41.5 61.5,43.5 61.5,45.5C 59.5,45.5 57.5,45.5 55.5,45.5C 55.5,43.5 55.5,41.5 55.5,39.5 Z"/></g>
<g><path style="opacity:0.926" fill="#000000" d="M 27.5,39.5 C 33.5,39.5 39.5,39.5 45.5,39.5C 45.5,41.5 45.5,43.5 45.5,45.5C 39.5,45.5 33.5,45.5 27.5,45.5C 27.5,43.5 27.5,41.5 27.5,39.5 Z"/></g>
<g><path style="opacity:0.961" fill="#000000" d="M 51.5,55.5 C 56.1785,55.3342 60.8452,55.5008 65.5,56C 66,56.5 66.5,57 67,57.5C 67.6667,62.1667 67.6667,66.8333 67,71.5C 66.5,72 66,72.5 65.5,73C 60.8333,73.6667 56.1667,73.6667 51.5,73C 51,72.5 50.5,72 50,71.5C 48.9456,65.8855 49.4456,60.5522 51.5,55.5 Z M 55.5,61.5 C 57.5,61.5 59.5,61.5 61.5,61.5C 61.5,63.5 61.5,65.5 61.5,67.5C 59.5,67.5 57.5,67.5 55.5,67.5C 55.5,65.5 55.5,63.5 55.5,61.5 Z"/></g>
<g><path style="opacity:0.926" fill="#000000" d="M 27.5,61.5 C 33.5,61.5 39.5,61.5 45.5,61.5C 45.5,63.5 45.5,65.5 45.5,67.5C 39.5,67.5 33.5,67.5 27.5,67.5C 27.5,65.5 27.5,63.5 27.5,61.5 Z"/></g>
</svg>
