<?xml version="1.0" encoding="UTF-8"?>
<!DOCTYPE svg PUBLIC "-//W3C//DTD SVG 1.1//EN" "http://www.w3.org/Graphics/SVG/1.1/DTD/svg11.dtd">
<svg xmlns="http://www.w3.org/2000/svg" version="1.1" width="96px" height="96px" style="shape-rendering:geometricPrecision; text-rendering:geometricPrecision; image-rendering:optimizeQuality; fill-rule:evenodd; clip-rule:evenodd" xmlns:xlink="http://www.w3.org/1999/xlink">
<g><path style="opacity:0.838" fill="#000000" d="M 46.5,10.5 C 47.7079,11.2341 49.0413,11.5674 50.5,11.5C 50.5,14.8333 50.5,18.1667 50.5,21.5C 48.5,21.5 46.5,21.5 44.5,21.5C 44.0357,17.4975 44.7024,13.8309 46.5,10.5 Z"/></g>
<g><path style="opacity:0.861" fill="#000000" d="M 44.5,24.5 C 46.5,24.5 48.5,24.5 50.5,24.5C 50.3335,34.8387 50.5002,45.172 51,55.5C 53.3968,52.6 56.2302,50.2667 59.5,48.5C 61.5,49.1667 62.8333,50.5 63.5,52.5C 59.3866,58.9514 54.0533,63.9514 47.5,67.5C 40.9467,63.9514 35.6134,58.9514 31.5,52.5C 32.1667,50.5 33.5,49.1667 35.5,48.5C 38.7698,50.2667 41.6032,52.6 44,55.5C 44.4998,45.172 44.6665,34.8387 44.5,24.5 Z"/></g>
<g><path style="opacity:0.866" fill="#000000" d="M 13.5,60.5 C 14.7079,61.2341 16.0413,61.5674 17.5,61.5C 17.1908,66.2675 17.6908,70.9342 19,75.5C 21.6604,76.8343 24.4937,77.6676 27.5,78C 28.8333,79.6667 28.8333,81.3333 27.5,83C 16.16,85.4881 10.8267,80.9881 11.5,69.5C 11.6036,66.2308 12.2703,63.2308 13.5,60.5 Z"/></g>
<g><path style="opacity:0.937" fill="#000000" d="M 79.5,60.5 C 80.7079,61.2341 82.0413,61.5674 83.5,61.5C 83.666,66.8437 83.4994,72.1771 83,77.5C 81.8333,80 80,81.8333 77.5,83C 62.4889,83.8328 47.4889,83.6662 32.5,82.5C 31.1667,81.1667 31.1667,79.8333 32.5,78.5C 46.8892,77.9499 61.2225,77.1166 75.5,76C 76.6794,70.7022 78.0127,65.5356 79.5,60.5 Z"/></g>
</svg>
