<?xml version="1.0" encoding="UTF-8"?>
<!DOCTYPE svg PUBLIC "-//W3C//DTD SVG 1.1//EN" "http://www.w3.org/Graphics/SVG/1.1/DTD/svg11.dtd">
<svg xmlns="http://www.w3.org/2000/svg" version="1.1" width="96px" height="96px" style="shape-rendering:geometricPrecision; text-rendering:geometricPrecision; image-rendering:optimizeQuality; fill-rule:evenodd; clip-rule:evenodd" xmlns:xlink="http://www.w3.org/1999/xlink">
<g><path style="opacity:0.834" fill="#000000" d="M 65.5,9.5 C 82.9553,8.44653 88.7887,16.1132 83,32.5C 77.8826,38.2941 72.2159,43.2941 66,47.5C 63.741,47.7394 62.5743,46.7394 62.5,44.5C 63.7444,41.9133 65.411,39.5799 67.5,37.5C 64.5,33.8333 61.1667,30.5 57.5,27.5C 50.6811,33.8186 44.0144,40.3186 37.5,47C 32.8996,48.5833 31.0663,47.0833 32,42.5C 43.0617,31.2707 54.2284,20.2707 65.5,9.5 Z M 68.5,16.5 C 76.3296,15.4949 79.4963,18.8283 78,26.5C 77.0267,28.64 75.5267,30.3067 73.5,31.5C 69.8333,28.5 66.5,25.1667 63.5,21.5C 64.8818,19.4514 66.5484,17.7847 68.5,16.5 Z"/></g>
<g><path style="opacity:0.836" fill="#000000" d="M 57.5,47.5 C 62.1225,46.4082 63.9558,48.0748 63,52.5C 54.1667,61.3333 45.3333,70.1667 36.5,79C 29.5522,81.3205 22.5522,83.4872 15.5,85.5C 12.4068,84.7977 10.4068,82.9644 9.5,80C 11.4111,73.5223 13.2444,67.0223 15,60.5C 17.7969,56.7012 20.9636,53.2012 24.5,50C 27.3534,49.3414 29.0201,50.508 29.5,53.5C 27.9181,56.4241 25.9181,59.0908 23.5,61.5C 26.5,65.1667 29.8333,68.5 33.5,71.5C 41.8543,63.8123 49.8543,55.8123 57.5,47.5 Z M 18.5,76.5 C 18.523,74.0733 19.023,71.74 20,69.5C 21.8333,71.3333 23.6667,73.1667 25.5,75C 23.26,75.977 20.9267,76.477 18.5,76.5 Z"/></g>
</svg>
