<?xml version="1.0" encoding="UTF-8"?>
<!DOCTYPE svg PUBLIC "-//W3C//DTD SVG 1.1//EN" "http://www.w3.org/Graphics/SVG/1.1/DTD/svg11.dtd">
<svg xmlns="http://www.w3.org/2000/svg" version="1.1" width="128px" height="128px" style="shape-rendering:geometricPrecision; text-rendering:geometricPrecision; image-rendering:optimizeQuality; fill-rule:evenodd; clip-rule:evenodd" xmlns:xlink="http://www.w3.org/1999/xlink">
<g><path style="opacity:0.856" fill="#000000" d="M 41.5,-0.5 C 43.5,-0.5 45.5,-0.5 47.5,-0.5C 47.9411,13.6044 46.4411,27.6044 43,41.5C 41.5869,44.6612 39.9203,47.6612 38,50.5C 33.1431,54.601 28.4764,58.9343 24,63.5C 22.1211,66.8662 22.1211,70.1995 24,73.5C 27.3124,76.656 30.9791,79.3226 35,81.5C 36.3138,85.1806 35.1471,87.5139 31.5,88.5C 14.8362,83.0155 10.3362,72.3488 18,56.5C 25.0923,51.4095 30.759,45.0762 35,37.5C 37.2172,24.806 39.3839,12.1393 41.5,-0.5 Z"/></g>
<g><path style="opacity:0.856" fill="#000000" d="M 79.5,-0.5 C 81.5,-0.5 83.5,-0.5 85.5,-0.5C 87.6161,12.1393 89.7828,24.806 92,37.5C 96.241,45.0762 101.908,51.4095 109,56.5C 116.664,72.3488 112.164,83.0155 95.5,88.5C 91.8529,87.5139 90.6862,85.1806 92,81.5C 96.0209,79.3226 99.6876,76.656 103,73.5C 104.879,70.1995 104.879,66.8662 103,63.5C 98.5236,58.9343 93.8569,54.601 89,50.5C 87.0797,47.6612 85.4131,44.6612 84,41.5C 80.5589,27.6044 79.0589,13.6044 79.5,-0.5 Z"/></g>
<g><path style="opacity:0.84" fill="#000000" d="M 36.5,70.5 C 44.8206,70.1601 51.4872,73.3267 56.5,80C 64.7964,83.4368 71.463,81.4368 76.5,74C 80.7889,71.1234 85.4555,70.1234 90.5,71C 92.9938,73.4231 92.9938,75.7564 90.5,78C 88.2852,79.0438 85.9519,79.7105 83.5,80C 70.1667,94 56.8333,94 43.5,80C 35.9758,80.0316 33.6424,76.8649 36.5,70.5 Z"/></g>
<g><path style="opacity:0.867" fill="#000000" d="M 26.5,127.5 C 24.8333,127.5 23.1667,127.5 21.5,127.5C 12.2619,121.431 12.2619,115.264 21.5,109C 25.7079,107.701 28.3746,109.201 29.5,113.5C 38.948,109.851 43.448,102.851 43,92.5C 48.7846,89.9285 51.2846,91.7618 50.5,98C 49.4821,111.191 42.4821,119.358 29.5,122.5C 28.6801,124.319 27.6801,125.986 26.5,127.5 Z"/></g>
<g><path style="opacity:0.869" fill="#000000" d="M 105.5,127.5 C 103.833,127.5 102.167,127.5 100.5,127.5C 99.3199,125.986 98.3199,124.319 97.5,122.5C 81.9552,118.401 75.1218,108.401 77,92.5C 79.1385,91.2309 81.3052,91.2309 83.5,92.5C 83.4892,102.791 88.1559,109.791 97.5,113.5C 98.6254,109.201 101.292,107.701 105.5,109C 114.738,115.264 114.738,121.431 105.5,127.5 Z"/></g>
</svg>
