<?xml version="1.0" encoding="UTF-8"?>
<!DOCTYPE svg PUBLIC "-//W3C//DTD SVG 1.1//EN" "http://www.w3.org/Graphics/SVG/1.1/DTD/svg11.dtd">
<svg xmlns="http://www.w3.org/2000/svg" version="1.1" width="128px" height="128px" style="shape-rendering:geometricPrecision; text-rendering:geometricPrecision; image-rendering:optimizeQuality; fill-rule:evenodd; clip-rule:evenodd" xmlns:xlink="http://www.w3.org/1999/xlink">
<g><path style="opacity:0.868" fill="#000000" d="M 64.5,-0.5 C 65.8333,-0.5 67.1667,-0.5 68.5,-0.5C 68.5978,5.10883 67.4312,10.4422 65,15.5C 59.9969,24.1762 54.4969,32.5095 48.5,40.5C 54.6995,42.5414 61.0328,44.0414 67.5,45C 70.0288,47.6417 71.0288,50.8084 70.5,54.5C 79.7126,54.2939 88.2126,56.6272 96,61.5C 98.7,67.2667 97.5333,72.1 92.5,76C 86.202,79.2103 79.5353,81.2103 72.5,82C 73.9164,84.6271 74.5831,87.4605 74.5,90.5C 73.4897,95.2082 73.4897,99.8749 74.5,104.5C 76.0212,105.937 77.8546,106.604 80,106.5C 88.6129,105.388 97.1129,103.722 105.5,101.5C 112.242,101.947 115.576,105.614 115.5,112.5C 114.812,117.897 113.145,122.897 110.5,127.5C 108.5,127.5 106.5,127.5 104.5,127.5C 103.386,126.115 102.386,124.615 101.5,123C 103.53,119.411 104.863,115.578 105.5,111.5C 97.786,113.409 89.9527,114.742 82,115.5C 66.7856,114.611 61.6189,106.778 66.5,92C 65.7312,88.1289 64.3979,84.4623 62.5,81C 62.9814,77.1864 64.9814,74.5197 68.5,73C 75.11,73.0164 81.11,71.183 86.5,67.5C 85.9747,66.8076 85.3081,66.3076 84.5,66C 77.4038,65.5716 70.4038,64.5716 63.5,63C 61.2824,60.2498 59.9491,57.0832 59.5,53.5C 52.2069,52.6874 46.0402,49.6874 41,44.5C 40.3333,42.1667 40.3333,39.8333 41,37.5C 50.6098,25.9502 58.4431,13.2836 64.5,-0.5 Z"/></g>
<g><path style="opacity:0.825" fill="#000000" d="M 20.5,41.5 C 31.9893,40.1551 36.8226,45.1551 35,56.5C 32.6581,59.7544 29.4915,61.5877 25.5,62C 28.2413,62.9771 31.0746,63.4771 34,63.5C 40.814,62.7457 47.6474,62.4124 54.5,62.5C 54.5,63.8333 54.5,65.1667 54.5,66.5C 45.2421,69.0305 35.9088,69.5305 26.5,68C 15.2998,65.4077 10.7998,58.5744 13,47.5C 15.1337,44.8474 17.6337,42.8474 20.5,41.5 Z M 21.5,58.5 C 17.2008,54.8595 17.5342,51.6928 22.5,49C 24.728,48.1799 26.728,48.5132 28.5,50C 22.713,49.9556 20.3797,52.789 21.5,58.5 Z"/></g>
<g><path style="opacity:0.818" fill="#000000" d="M 28.5,74.5 C 35.5079,74.3337 42.5079,74.5004 49.5,75C 52.4471,75.1118 53.7804,76.6118 53.5,79.5C 44.7934,79.8706 36.1268,80.704 27.5,82C 15.11,89.0869 15.9433,94.2536 30,97.5C 33.5102,96.3395 34.8436,94.0061 34,90.5C 32.399,94.2567 29.7324,95.2567 26,93.5C 24.523,90.4881 24.8563,87.4881 27,84.5C 31.0674,81.9012 35.0674,81.9012 39,84.5C 41.7439,91.1778 40.5773,97.0111 35.5,102C 28.8515,103.607 22.5182,102.607 16.5,99C 10.6021,91.1962 11.6021,84.1962 19.5,78C 22.5711,76.7043 25.5711,75.5377 28.5,74.5 Z"/></g>
</svg>
