<?xml version="1.0" encoding="UTF-8"?>
<!DOCTYPE svg PUBLIC "-//W3C//DTD SVG 1.1//EN" "http://www.w3.org/Graphics/SVG/1.1/DTD/svg11.dtd">
<svg xmlns="http://www.w3.org/2000/svg" version="1.1" width="96px" height="96px" style="shape-rendering:geometricPrecision; text-rendering:geometricPrecision; image-rendering:optimizeQuality; fill-rule:evenodd; clip-rule:evenodd" xmlns:xlink="http://www.w3.org/1999/xlink">
<g><path style="opacity:0.831" fill="#000000" d="M 22.5,13.5 C 28.3581,12.9875 34.0247,13.6542 39.5,15.5C 40.4656,17.396 40.7989,19.396 40.5,21.5C 22.0205,16.8317 13.5205,23.8317 15,42.5C 18.8955,52.3937 25.0622,60.5604 33.5,67C 37.6983,70.03 42.0316,72.8633 46.5,75.5C 48.9676,74.1971 51.301,72.6971 53.5,71C 60.1617,70.5956 61.1617,72.9289 56.5,78C 52.7525,81.3808 48.4192,82.7141 43.5,82C 28,74.5 16.5,63 9,47.5C 3.86832,32.1242 8.36832,20.7909 22.5,13.5 Z"/></g>
<g><path style="opacity:0.833" fill="#000000" d="M 56.5,13.5 C 77.8058,12.3055 87.3058,22.3055 85,43.5C 81.5389,55.1015 74.7056,64.1015 64.5,70.5C 63.5581,70.3918 62.7247,70.0585 62,69.5C 61.3333,67.8333 61.3333,66.1667 62,64.5C 68.46,58.9066 73.46,52.2399 77,44.5C 80.1394,36.259 78.6394,29.0924 72.5,23C 67.3201,20.1485 61.9868,19.8152 56.5,22C 52.8258,25.3416 49.4925,29.0083 46.5,33C 42.3803,33.5138 40.8803,31.6805 42,27.5C 45.4084,21.2566 50.2417,16.5899 56.5,13.5 Z"/></g>
</svg>
