<?xml version="1.0" encoding="UTF-8"?>
<!DOCTYPE svg PUBLIC "-//W3C//DTD SVG 1.1//EN" "http://www.w3.org/Graphics/SVG/1.1/DTD/svg11.dtd">
<svg xmlns="http://www.w3.org/2000/svg" version="1.1" width="96px" height="96px" style="shape-rendering:geometricPrecision; text-rendering:geometricPrecision; image-rendering:optimizeQuality; fill-rule:evenodd; clip-rule:evenodd" xmlns:xlink="http://www.w3.org/1999/xlink">
<g><path style="opacity:0.923" fill="#000000" d="M 12.5,11.5 C 16.8461,11.3343 21.1794,11.501 25.5,12C 26.8333,13.6667 26.8333,15.3333 25.5,17C 19.7884,16.792 14.9551,18.6253 11,22.5C 9,35.8333 9,49.1667 11,62.5C 12.762,65.268 15.262,66.768 18.5,67C 29.5151,67.1676 40.5151,67.6676 51.5,68.5C 52.8333,69.8333 52.8333,71.1667 51.5,72.5C 38.5128,73.666 25.5128,73.8327 12.5,73C 9.26476,71.6396 6.76476,69.473 5,66.5C 3.3658,51.2594 3.03247,35.9261 4,20.5C 5.68784,16.3148 8.52117,13.3148 12.5,11.5 Z"/></g>
<g><path style="opacity:0.924" fill="#000000" d="M 31.5,11.5 C 45.1707,11.3334 58.8374,11.5001 72.5,12C 76.6667,13.5 79.5,16.3333 81,20.5C 81.6667,35.1667 81.6667,49.8333 81,64.5C 79.5,68.6667 76.6667,71.5 72.5,73C 67.8452,73.4992 63.1785,73.6658 58.5,73.5C 58.5,71.5 58.5,69.5 58.5,67.5C 64.5879,68.3594 69.7546,66.6928 74,62.5C 76,49.1667 76,35.8333 74,22.5C 72.238,19.732 69.738,18.232 66.5,18C 54.8333,17.6667 43.1667,17.3333 31.5,17C 30.2475,15.1722 30.2475,13.3388 31.5,11.5 Z"/></g>
<g><path style="opacity:0.927" fill="#000000" d="M 85.5,27.5 C 87.5,27.5 89.5,27.5 91.5,27.5C 91.6666,40.8375 91.4999,54.1708 91,67.5C 88.5,75.3333 83.3333,80.5 75.5,83C 59.8333,83.6667 44.1667,83.6667 28.5,83C 27.4464,81.6124 27.2797,80.1124 28,78.5C 41.425,77.6761 54.925,77.1761 68.5,77C 78.3333,75.8333 83.8333,70.3333 85,60.5C 85.4998,49.505 85.6665,38.505 85.5,27.5 Z"/></g>
<g><path style="opacity:0.802" fill="#000000" d="M 24.5,35.5 C 27.1873,35.3359 29.854,35.5026 32.5,36C 36.6328,39.1311 40.4662,42.6311 44,46.5C 48.2429,40.6014 53.4096,39.4347 59.5,43C 62.3333,45.8333 65.1667,48.6667 68,51.5C 69.5833,56.1004 68.0833,57.9337 63.5,57C 60.0198,54.3542 56.6865,51.5209 53.5,48.5C 46.7164,53.7811 40.383,59.6145 34.5,66C 29.9167,66.9337 28.4167,65.1004 30,60.5C 32.8333,57.6667 35.6667,54.8333 38.5,52C 35.5,49 32.5,46 29.5,43C 28.8333,42.3333 28.1667,42.3333 27.5,43C 24.465,46.3702 21.1317,49.3702 17.5,52C 12.9167,52.9337 11.4167,51.1004 13,46.5C 16.7288,42.6019 20.5621,38.9352 24.5,35.5 Z"/></g>
</svg>
