<?xml version="1.0" encoding="UTF-8"?>
<!DOCTYPE svg PUBLIC "-//W3C//DTD SVG 1.1//EN" "http://www.w3.org/Graphics/SVG/1.1/DTD/svg11.dtd">
<svg xmlns="http://www.w3.org/2000/svg" version="1.1" width="96px" height="96px" style="shape-rendering:geometricPrecision; text-rendering:geometricPrecision; image-rendering:optimizeQuality; fill-rule:evenodd; clip-rule:evenodd" xmlns:xlink="http://www.w3.org/1999/xlink">
<g><path style="opacity:0.838" fill="#000000" d="M 44.5,13.5 C 50.8399,13.849 57.1732,14.349 63.5,15C 71.8571,16.0389 78.0238,20.2056 82,27.5C 86.2077,34.9975 88.2077,42.9975 88,51.5C 86.3333,52.8333 84.6667,52.8333 83,51.5C 81.1729,43.3482 78.1729,35.6816 74,28.5C 71.2391,24.4659 67.4058,22.2993 62.5,22C 49.5199,19.5744 36.8533,20.5744 24.5,25C 21.93,27.0673 19.93,29.5673 18.5,32.5C 13.3831,34.5515 11.5498,32.8849 13,27.5C 15.4913,24.0097 18.3246,20.843 21.5,18C 29.1066,15.4647 36.7733,13.9647 44.5,13.5 Z"/></g>
<g><path style="opacity:0.765" fill="#000000" d="M 61.5,31.5 C 63.5,31.5 65.5,31.5 67.5,31.5C 67.5,33.5 67.5,35.5 67.5,37.5C 65.5,37.5 63.5,37.5 61.5,37.5C 61.5,35.5 61.5,33.5 61.5,31.5 Z"/></g>
<g><path style="opacity:0.911" fill="#000000" d="M 27.5,33.5 C 29.5,33.5 31.5,33.5 33.5,33.5C 33.5,35.5 33.5,37.5 33.5,39.5C 35.5,39.5 37.5,39.5 39.5,39.5C 39.5,41.5 39.5,43.5 39.5,45.5C 37.5,45.5 35.5,45.5 33.5,45.5C 33.5,47.5 33.5,49.5 33.5,51.5C 31.5,51.5 29.5,51.5 27.5,51.5C 27.5,49.5 27.5,47.5 27.5,45.5C 25.5,45.5 23.5,45.5 21.5,45.5C 21.5,43.5 21.5,41.5 21.5,39.5C 23.5,39.5 25.5,39.5 27.5,39.5C 27.5,37.5 27.5,35.5 27.5,33.5 Z"/></g>
<g><path style="opacity:0.765" fill="#000000" d="M 53.5,39.5 C 55.5,39.5 57.5,39.5 59.5,39.5C 59.5,41.5 59.5,43.5 59.5,45.5C 57.5,45.5 55.5,45.5 53.5,45.5C 53.5,43.5 53.5,41.5 53.5,39.5 Z"/></g>
<g><path style="opacity:0.765" fill="#000000" d="M 69.5,39.5 C 71.5,39.5 73.5,39.5 75.5,39.5C 75.5,41.5 75.5,43.5 75.5,45.5C 73.5,45.5 71.5,45.5 69.5,45.5C 69.5,43.5 69.5,41.5 69.5,39.5 Z"/></g>
<g><path style="opacity:0.84" fill="#000000" d="M 8.5,40.5 C 10.1439,40.2865 11.6439,40.6198 13,41.5C 12.0117,50.1161 11.6783,58.7827 12,67.5C 12.2739,70.7145 13.6073,73.3812 16,75.5C 23.8085,70.3582 30.3085,63.8582 35.5,56C 43.5,55.3333 51.5,55.3333 59.5,56C 64.6915,63.8582 71.1915,70.3582 79,75.5C 80.3848,74.4495 81.3848,73.1161 82,71.5C 82.6198,67.7791 83.4532,64.1124 84.5,60.5C 88.5419,59.026 90.5419,60.526 90.5,65C 90.2868,71.321 87.9535,76.6543 83.5,81C 77.4232,82.9801 72.0899,81.6468 67.5,77C 63.1667,72 58.8333,67 54.5,62C 49.8333,61.3333 45.1667,61.3333 40.5,62C 35.1434,68.3548 29.4768,74.3548 23.5,80C 12.6662,84.2183 6.49953,80.385 5,68.5C 3.88322,58.8241 5.04989,49.4908 8.5,40.5 Z"/></g>
<g><path style="opacity:0.765" fill="#000000" d="M 61.5,47.5 C 63.5,47.5 65.5,47.5 67.5,47.5C 67.5,49.5 67.5,51.5 67.5,53.5C 65.5,53.5 63.5,53.5 61.5,53.5C 61.5,51.5 61.5,49.5 61.5,47.5 Z"/></g>
</svg>
