<?xml version="1.0" encoding="UTF-8"?>
<!DOCTYPE svg PUBLIC "-//W3C//DTD SVG 1.1//EN" "http://www.w3.org/Graphics/SVG/1.1/DTD/svg11.dtd">
<svg xmlns="http://www.w3.org/2000/svg" version="1.1" width="96px" height="96px" style="shape-rendering:geometricPrecision; text-rendering:geometricPrecision; image-rendering:optimizeQuality; fill-rule:evenodd; clip-rule:evenodd" xmlns:xlink="http://www.w3.org/1999/xlink">
<g><path style="opacity:0.871" fill="#000000" d="M 53.5,5.5 C 61.3427,5.01029 65.3427,8.67696 65.5,16.5C 65.2909,24.2164 61.4575,29.2164 54,31.5C 53.5034,33.8098 53.3367,36.1432 53.5,38.5C 71.2928,41.0849 76.1261,50.4183 68,66.5C 65.0878,69.5445 61.5878,70.7111 57.5,70C 56.4464,68.6124 56.2797,67.1124 57,65.5C 63.3853,62.3959 65.7186,57.3959 64,50.5C 61.194,47.3969 57.694,45.7303 53.5,45.5C 53.962,58.5993 53.462,71.5993 52,84.5C 43.9364,91.4178 36.6031,90.7511 30,82.5C 27.9949,75.5098 30.4949,72.6764 37.5,74C 39.1213,76.166 39.9546,78.666 40,81.5C 42.0445,82.772 43.8778,82.4386 45.5,80.5C 46.7853,77.9795 47.4519,75.3128 47.5,72.5C 26.8749,68.2486 20.8749,56.5819 29.5,37.5C 31.396,36.5344 33.396,36.2011 35.5,36.5C 34.5803,41.1282 33.5803,45.7948 32.5,50.5C 33.6921,58.8612 38.5254,63.8612 47,65.5C 47.6667,59.8333 47.6667,54.1667 47,48.5C 45.647,49.6853 44.4803,51.0186 43.5,52.5C 41.604,53.4656 39.604,53.7989 37.5,53.5C 36.9184,46.74 39.9184,42.4067 46.5,40.5C 48.6812,34.3956 47.3479,33.2289 42.5,37C 37.3333,38.5 35.5,36.6667 37,31.5C 40.2458,29.6414 43.5791,27.9748 47,26.5C 47.3333,21.5 47.6667,16.5 48,11.5C 49.3597,8.97739 51.193,6.97739 53.5,5.5 Z M 55.5,12.5 C 57.8896,12.6848 58.8896,14.0182 58.5,16.5C 58.0699,19.4473 56.5699,21.7806 54,23.5C 53.2423,19.6382 53.7423,15.9716 55.5,12.5 Z"/></g>
</svg>
