<?xml version="1.0" encoding="UTF-8"?>
<!DOCTYPE svg PUBLIC "-//W3C//DTD SVG 1.1//EN" "http://www.w3.org/Graphics/SVG/1.1/DTD/svg11.dtd">
<svg xmlns="http://www.w3.org/2000/svg" version="1.1" width="96px" height="96px" style="shape-rendering:geometricPrecision; text-rendering:geometricPrecision; image-rendering:optimizeQuality; fill-rule:evenodd; clip-rule:evenodd" xmlns:xlink="http://www.w3.org/1999/xlink">
<g><path style="opacity:0.836" fill="#000000" d="M 13.5,13.5 C 20.6408,13.7106 27.6408,14.8773 34.5,17C 36.5717,21.0832 35.405,23.2499 31,23.5C 26.5932,22.815 22.2599,21.815 18,20.5C 16.2894,20.4393 14.956,21.1059 14,22.5C 13.5508,27.8369 14.3841,33.0035 16.5,38C 15.8148,41.5941 14.8148,45.0941 13.5,48.5C 16.8908,54.7983 17.0574,61.1316 14,67.5C 13.3333,69.8333 13.3333,72.1667 14,74.5C 14.956,75.8941 16.2894,76.5607 18,76.5C 28.5309,72.2479 38.8642,72.5812 49,77.5C 50.0748,80.5309 49.0748,82.5309 46,83.5C 38.2566,79.8043 30.4232,79.6376 22.5,83C 13.1623,84.9942 7.49559,81.3276 5.5,72C 6.52237,67.5788 7.85571,63.2455 9.5,59C 5.5,52 5.5,45 9.5,38C 6.86049,32.4474 6.02715,26.614 7,20.5C 8.69406,17.6424 10.8607,15.309 13.5,13.5 Z"/></g>
<g><path style="opacity:0.834" fill="#000000" d="M 47.5,13.5 C 55.7807,17.0783 64.114,17.2449 72.5,14C 82.2185,11.8985 87.5518,15.7319 88.5,25.5C 88.1204,29.9732 87.1204,34.3065 85.5,38.5C 86.5074,41.8436 87.5074,45.1769 88.5,48.5C 87.796,52.1089 86.796,55.6089 85.5,59C 88.1395,64.5526 88.9728,70.386 88,76.5C 84.6772,82.9081 79.5105,85.0748 72.5,83C 68.5796,81.6866 64.5796,80.6866 60.5,80C 58.4283,75.9168 59.595,73.7501 64,73.5C 68.4068,74.185 72.7401,75.185 77,76.5C 78.7106,76.5607 80.044,75.8941 81,74.5C 81.4492,69.1631 80.6159,63.9965 78.5,59C 79.1852,55.4059 80.1852,51.9059 81.5,48.5C 77.8555,42.2566 77.6888,35.9233 81,29.5C 81.6667,27.1667 81.6667,24.8333 81,22.5C 80.044,21.1059 78.7106,20.4393 77,20.5C 66.4691,24.7521 56.1358,24.4188 46,19.5C 45.2516,17.1599 45.7516,15.1599 47.5,13.5 Z"/></g>
<g><path style="opacity:0.887" fill="#000000" d="M 31.5,35.5 C 39.4863,34.998 41.4863,38.1647 37.5,45C 29.424,45.8047 27.424,42.638 31.5,35.5 Z"/></g>
<g><path style="opacity:0.887" fill="#000000" d="M 57.5,35.5 C 65.4863,34.998 67.4863,38.1647 63.5,45C 55.424,45.8047 53.424,42.638 57.5,35.5 Z"/></g>
<g><path style="opacity:0.824" fill="#000000" d="M 40.5,51.5 C 49.5868,50.0542 57.7534,52.0542 65,57.5C 65.4955,59.4727 65.6621,61.4727 65.5,63.5C 63.4727,63.6621 61.4727,63.4955 59.5,63C 56.2502,59.5434 52.2502,58.0434 47.5,58.5C 42.7498,58.0434 38.7498,59.5434 35.5,63C 33.5273,63.4955 31.5273,63.6621 29.5,63.5C 29.3379,61.4727 29.5045,59.4727 30,57.5C 33.3507,55.0795 36.8507,53.0795 40.5,51.5 Z"/></g>
</svg>
