<?xml version="1.0" encoding="UTF-8"?>
<!DOCTYPE svg PUBLIC "-//W3C//DTD SVG 1.1//EN" "http://www.w3.org/Graphics/SVG/1.1/DTD/svg11.dtd">
<svg xmlns="http://www.w3.org/2000/svg" version="1.1" width="128px" height="128px" style="shape-rendering:geometricPrecision; text-rendering:geometricPrecision; image-rendering:optimizeQuality; fill-rule:evenodd; clip-rule:evenodd" xmlns:xlink="http://www.w3.org/1999/xlink">
<g><path style="opacity:0.856" fill="#000000" d="M 41.5,-0.5 C 43.5,-0.5 45.5,-0.5 47.5,-0.5C 47.9411,13.6044 46.4411,27.6044 43,41.5C 41.5869,44.6612 39.9203,47.6612 38,50.5C 33.1431,54.601 28.4764,58.9343 24,63.5C 22.1211,66.8662 22.1211,70.1995 24,73.5C 27.3124,76.656 30.9791,79.3226 35,81.5C 36.3138,85.1806 35.1471,87.5139 31.5,88.5C 14.8362,83.0155 10.3362,72.3488 18,56.5C 25.0923,51.4095 30.759,45.0762 35,37.5C 37.2172,24.806 39.3839,12.1393 41.5,-0.5 Z"/></g>
<g><path style="opacity:0.856" fill="#000000" d="M 79.5,-0.5 C 81.5,-0.5 83.5,-0.5 85.5,-0.5C 87.6161,12.1393 89.7828,24.806 92,37.5C 96.241,45.0762 101.908,51.4095 109,56.5C 116.664,72.3488 112.164,83.0155 95.5,88.5C 91.8529,87.5139 90.6862,85.1806 92,81.5C 96.0209,79.3226 99.6876,76.656 103,73.5C 104.879,70.1995 104.879,66.8662 103,63.5C 98.5236,58.9343 93.8569,54.601 89,50.5C 87.0797,47.6612 85.4131,44.6612 84,41.5C 80.5589,27.6044 79.0589,13.6044 79.5,-0.5 Z"/></g>
<g><path style="opacity:0.84" fill="#000000" d="M 36.5,70.5 C 44.8206,70.1601 51.4872,73.3267 56.5,80C 64.7964,83.4368 71.463,81.4368 76.5,74C 80.7889,71.1234 85.4555,70.1234 90.5,71C 92.9938,73.4231 92.9938,75.7564 90.5,78C 88.2852,79.0438 85.9519,79.7105 83.5,80C 70.1667,94 56.8333,94 43.5,80C 35.9758,80.0316 33.6424,76.8649 36.5,70.5 Z"/></g>
<g><path style="opacity:0.858" fill="#000000" d="M 33.5,127.5 C 29.5,127.5 25.5,127.5 21.5,127.5C 18.9142,124.994 18.9142,122.494 21.5,120C 30.743,120.548 37.4097,116.714 41.5,108.5C 40.086,107.376 38.586,106.376 37,105.5C 37.3106,99.345 40.4773,95.345 46.5,93.5C 50.3104,94.7898 53.4771,97.1231 56,100.5C 56.6667,102.167 56.6667,103.833 56,105.5C 54.2197,106.594 52.3864,107.594 50.5,108.5C 47.9414,117.72 42.2747,124.053 33.5,127.5 Z"/></g>
<g><path style="opacity:0.858" fill="#000000" d="M 105.5,127.5 C 101.5,127.5 97.5,127.5 93.5,127.5C 84.7253,124.053 79.0586,117.72 76.5,108.5C 74.6136,107.594 72.7803,106.594 71,105.5C 70.3333,103.833 70.3333,102.167 71,100.5C 77.8679,90.9231 84.2013,91.2564 90,101.5C 90.5946,102.899 90.4279,104.232 89.5,105.5C 88.1667,106.5 86.8333,107.5 85.5,108.5C 89.5903,116.714 96.257,120.548 105.5,120C 108.086,122.494 108.086,124.994 105.5,127.5 Z"/></g>
</svg>
