<?xml version="1.0" encoding="UTF-8"?>
<!DOCTYPE svg PUBLIC "-//W3C//DTD SVG 1.1//EN" "http://www.w3.org/Graphics/SVG/1.1/DTD/svg11.dtd">
<svg xmlns="http://www.w3.org/2000/svg" version="1.1" width="96px" height="96px" style="shape-rendering:geometricPrecision; text-rendering:geometricPrecision; image-rendering:optimizeQuality; fill-rule:evenodd; clip-rule:evenodd" xmlns:xlink="http://www.w3.org/1999/xlink">
<g><path style="opacity:0.937" fill="#000000" d="M 19.5,9.5 C 26.5079,9.33371 33.5079,9.50038 40.5,10C 43.1732,11.0014 45.5065,12.5014 47.5,14.5C 49.4935,12.5014 51.8268,11.0014 54.5,10C 61.5,9.33333 68.5,9.33333 75.5,10C 76,10.5 76.5,11 77,11.5C 77.6667,25.8333 77.6667,40.1667 77,54.5C 75.3333,55.8333 73.6667,55.8333 72,54.5C 71.5001,41.8377 71.3334,29.1711 71.5,16.5C 66.4889,16.3341 61.4889,16.5007 56.5,17C 54.714,17.7845 53.214,18.9512 52,20.5C 50.8931,29.2754 50.3931,38.1087 50.5,47C 50.6667,54.5 50.8333,62 51,69.5C 52.0674,68.8095 53.2341,68.3095 54.5,68C 60.1569,67.5006 65.8236,67.3339 71.5,67.5C 70.9999,62.4425 72.9999,60.7758 77.5,62.5C 77.7892,66.1064 77.4558,69.6064 76.5,73C 69.913,74.212 63.2464,74.8787 56.5,75C 54.6969,75.6368 53.3636,76.8035 52.5,78.5C 62.7275,79.8182 72.8942,79.8182 83,78.5C 83.6667,59.8333 83.6667,41.1667 83,22.5C 77.2992,20.1161 77.1326,17.4494 82.5,14.5C 85.1879,15.0049 87.3546,16.3382 89,18.5C 89.6667,39.8333 89.6667,61.1667 89,82.5C 88.1667,83.3333 87.3333,84.1667 86.5,85C 68.1667,85.6667 49.8333,85.6667 31.5,85C 30.1667,83.3333 30.1667,81.6667 31.5,80C 35.211,79.8253 38.8776,79.3253 42.5,78.5C 41.6364,76.8035 40.3031,75.6368 38.5,75C 32.8333,74.6667 27.1667,74.3333 21.5,74C 20.2341,73.6905 19.0674,73.1905 18,72.5C 17.3333,60.8333 17.3333,49.1667 18,37.5C 19.3876,36.4464 20.8876,36.2797 22.5,37C 23.4861,47.0842 23.8194,57.2509 23.5,67.5C 29.1764,67.3339 34.8431,67.5006 40.5,68C 41.7659,68.3095 42.9326,68.8095 44,69.5C 44.1667,62 44.3333,54.5 44.5,47C 44.6069,38.1087 44.1069,29.2754 43,20.5C 41.786,18.9512 40.286,17.7845 38.5,17C 33.5111,16.5007 28.5111,16.3341 23.5,16.5C 23.8025,21.43 23.4692,26.2633 22.5,31C 20.8876,31.7203 19.3876,31.5536 18,30.5C 17.502,27.5184 17.3354,24.5184 17.5,21.5C 15.5328,21.2606 13.6995,21.5939 12,22.5C 11.3333,41.1667 11.3333,59.8333 12,78.5C 15.3936,79.4558 18.8936,79.7892 22.5,79.5C 22.5,81.5 22.5,83.5 22.5,85.5C 17.8215,85.6658 13.1548,85.4992 8.5,85C 7.66667,84.1667 6.83333,83.3333 6,82.5C 5.33333,61.1667 5.33333,39.8333 6,18.5C 9.12727,15.2902 12.9606,13.9569 17.5,14.5C 17.3915,12.4862 18.0582,10.8195 19.5,9.5 Z"/></g>
</svg>
