<?xml version="1.0" encoding="UTF-8"?>
<!DOCTYPE svg PUBLIC "-//W3C//DTD SVG 1.1//EN" "http://www.w3.org/Graphics/SVG/1.1/DTD/svg11.dtd">
<svg xmlns="http://www.w3.org/2000/svg" version="1.1" width="96px" height="96px" style="shape-rendering:geometricPrecision; text-rendering:geometricPrecision; image-rendering:optimizeQuality; fill-rule:evenodd; clip-rule:evenodd" xmlns:xlink="http://www.w3.org/1999/xlink">
<g><path style="opacity:0.949" fill="#000000" d="M 51.5,4.5 C 61.4083,5.92606 66.0749,11.7594 65.5,22C 65.2322,26.8995 64.5656,31.7329 63.5,36.5C 77.0297,35.2029 83.5297,41.2029 83,54.5C 80.7968,63.6482 78.1301,72.6482 75,81.5C 70.9048,87.1019 65.4048,89.7686 58.5,89.5C 51.3298,88.5663 44.1632,87.5663 37,86.5C 29.8535,87.5359 22.6868,87.7026 15.5,87C 13.9512,85.786 12.7845,84.286 12,82.5C 10.2901,68.846 10.2901,55.1793 12,41.5C 13.1667,40.3333 14.3333,39.1667 15.5,38C 21.5899,37.2302 27.5899,36.8969 33.5,37C 36.791,32.2522 39.9577,27.4188 43,22.5C 44.2678,17.3634 45.9344,12.3634 48,7.5C 49.1451,6.36362 50.3117,5.36362 51.5,4.5 Z"/></g>
</svg>
