<?xml version="1.0" encoding="UTF-8"?>
<!DOCTYPE svg PUBLIC "-//W3C//DTD SVG 1.1//EN" "http://www.w3.org/Graphics/SVG/1.1/DTD/svg11.dtd">
<svg xmlns="http://www.w3.org/2000/svg" version="1.1" width="96px" height="96px" style="shape-rendering:geometricPrecision; text-rendering:geometricPrecision; image-rendering:optimizeQuality; fill-rule:evenodd; clip-rule:evenodd" xmlns:xlink="http://www.w3.org/1999/xlink">
<g><path style="opacity:0.874" fill="#000000" d="M 51.5,4.5 C 61.4083,5.92606 66.0749,11.7594 65.5,22C 65.2322,26.8995 64.5656,31.7329 63.5,36.5C 74.8384,34.8148 81.5051,39.4814 83.5,50.5C 81.5145,60.2915 79.0145,69.9582 76,79.5C 70.559,88.319 62.7257,91.4856 52.5,89C 49.1667,88.3333 45.8333,87.6667 42.5,87C 39.5671,83.4694 40.4004,81.3027 45,80.5C 49.3143,81.2962 53.6477,81.9629 58,82.5C 63.3846,82.4764 67.3846,80.143 70,75.5C 72.3226,67.2096 74.4893,58.8763 76.5,50.5C 76.1439,47.3121 74.4772,45.1455 71.5,44C 65.9171,43.8089 60.4171,43.3089 55,42.5C 56.0338,35.8708 57.2004,29.2041 58.5,22.5C 58.8463,18.0307 57.3463,14.364 54,11.5C 51.313,23.5408 45.9796,34.2075 38,43.5C 37.6667,56.8333 37.3333,70.1667 37,83.5C 33.425,86.9664 29.0916,88.2997 24,87.5C 21.1667,87.3333 18.3333,87.1667 15.5,87C 13.9512,85.786 12.7845,84.286 12,82.5C 11.3333,77.8333 11.3333,73.1667 12,68.5C 13.6667,67.1667 15.3333,67.1667 17,68.5C 17.3333,71.8333 17.6667,75.1667 18,78.5C 19.4626,80.8853 21.6292,81.8853 24.5,81.5C 26.808,81.6353 28.808,80.9686 30.5,79.5C 31.8333,68.1667 31.8333,56.8333 30.5,45.5C 26.5,42.8333 22.5,42.8333 18.5,45.5C 17.5524,50.4351 17.219,55.4351 17.5,60.5C 15.5,60.5 13.5,60.5 11.5,60.5C 11.3338,54.1579 11.5005,47.8246 12,41.5C 13.1667,40.3333 14.3333,39.1667 15.5,38C 21.5,37.6667 27.5,37.3333 33.5,37C 36.791,32.2522 39.9577,27.4188 43,22.5C 44.2678,17.3634 45.9344,12.3634 48,7.5C 49.1451,6.36362 50.3117,5.36362 51.5,4.5 Z"/></g>
</svg>
