<?xml version="1.0" encoding="UTF-8"?>
<!DOCTYPE svg PUBLIC "-//W3C//DTD SVG 1.1//EN" "http://www.w3.org/Graphics/SVG/1.1/DTD/svg11.dtd">
<svg xmlns="http://www.w3.org/2000/svg" version="1.1" width="96px" height="96px" style="shape-rendering:geometricPrecision; text-rendering:geometricPrecision; image-rendering:optimizeQuality; fill-rule:evenodd; clip-rule:evenodd" xmlns:xlink="http://www.w3.org/1999/xlink">
<g><path style="opacity:0.936" fill="#000000" d="M 41.5,7.5 C 58.8246,6.16223 66.1579,14.1622 63.5,31.5C 67.5138,31.3345 71.5138,31.5012 75.5,32C 76.6667,33.1667 77.8333,34.3333 79,35.5C 79.6667,51.5 79.6667,67.5 79,83.5C 77.786,85.0488 76.286,86.2155 74.5,87C 68.8431,87.4994 63.1764,87.6661 57.5,87.5C 57.5,85.5 57.5,83.5 57.5,81.5C 61.8461,81.6657 66.1794,81.499 70.5,81C 71.6667,80.5 72.5,79.6667 73,78.5C 73.6667,65.8333 73.6667,53.1667 73,40.5C 72.5,39.3333 71.6667,38.5 70.5,38C 61.8397,37.5002 53.1731,37.3336 44.5,37.5C 44.5,35.5 44.5,33.5 44.5,31.5C 48.8333,31.5 53.1667,31.5 57.5,31.5C 57.807,26.6175 56.9736,21.9508 55,17.5C 51.6621,14.6819 47.8288,13.8485 43.5,15C 41.3333,15.8333 39.8333,17.3333 39,19.5C 37.6959,25.4229 37.1959,31.4229 37.5,37.5C 33.1539,37.3343 28.8206,37.501 24.5,38C 23.3333,38.5 22.5,39.3333 22,40.5C 21.3333,53.1667 21.3333,65.8333 22,78.5C 22.5,79.6667 23.3333,80.5 24.5,81C 32.8333,81.3333 41.1667,81.6667 49.5,82C 50.5536,83.3876 50.7203,84.8876 50,86.5C 39.9105,87.652 29.7438,87.8186 19.5,87C 18.3333,85.8333 17.1667,84.6667 16,83.5C 15.3333,67.5 15.3333,51.5 16,35.5C 17.1667,34.3333 18.3333,33.1667 19.5,32C 23.4862,31.5012 27.4862,31.3345 31.5,31.5C 28.8769,20.7719 32.2102,12.7719 41.5,7.5 Z"/></g>
<g><path style="opacity:0.882" fill="#000000" d="M 43.5,53.5 C 53.7295,52.6578 56.2295,56.6578 51,65.5C 50.502,68.4816 50.3354,71.4816 50.5,74.5C 48.5,74.5 46.5,74.5 44.5,74.5C 44.6646,71.4816 44.498,68.4816 44,65.5C 40.8502,61.6314 40.6836,57.6314 43.5,53.5 Z"/></g>
</svg>
