<?xml version="1.0" encoding="UTF-8"?>
<!DOCTYPE svg PUBLIC "-//W3C//DTD SVG 1.1//EN" "http://www.w3.org/Graphics/SVG/1.1/DTD/svg11.dtd">
<svg xmlns="http://www.w3.org/2000/svg" version="1.1" width="96px" height="96px" style="shape-rendering:geometricPrecision; text-rendering:geometricPrecision; image-rendering:optimizeQuality; fill-rule:evenodd; clip-rule:evenodd" xmlns:xlink="http://www.w3.org/1999/xlink">
<g><path style="opacity:0.87" fill="#000000" d="M 31.5,12.5 C 37.0197,15.5059 41.8531,19.5059 46,24.5C 46.6667,26.5 46.6667,28.5 46,30.5C 41.9461,35.057 37.4461,39.057 32.5,42.5C 26.3208,39.6205 25.9875,36.1205 31.5,32C 16.4856,31.3563 10.3189,38.523 13,53.5C 16.6246,62.228 22.7912,64.728 31.5,61C 33.6667,58.8333 35.8333,56.6667 38,54.5C 44.4155,46.6667 47.0822,39.0001 52,31.5C 60.968,22.5991 71.1347,21.0991 82.5,27C 90.9097,34.3474 93.7431,43.514 91,54.5C 85.5285,69.652 75.0285,74.8187 59.5,70C 54.2805,68.1431 51.4472,64.6431 51,59.5C 52.2419,58.1279 53.7419,57.1279 55.5,56.5C 59.34,60.0037 63.84,62.0037 69,62.5C 74.3846,62.4764 78.3846,60.143 81,55.5C 84.1153,47.2885 82.6153,40.1218 76.5,34C 72.1667,32 67.8333,32 63.5,34C 56.1046,41.401 50.2713,49.901 46,59.5C 37.4172,72.1459 26.2505,74.9793 12.5,68C 3.94604,60.3276 1.1127,50.8276 4,39.5C 8.80323,27.0054 17.9699,21.5054 31.5,23C 26.6438,19.1554 26.6438,15.6554 31.5,12.5 Z"/></g>
</svg>
