<?xml version="1.0" encoding="UTF-8"?>
<!DOCTYPE svg PUBLIC "-//W3C//DTD SVG 1.1//EN" "http://www.w3.org/Graphics/SVG/1.1/DTD/svg11.dtd">
<svg xmlns="http://www.w3.org/2000/svg" version="1.1" width="96px" height="96px" style="shape-rendering:geometricPrecision; text-rendering:geometricPrecision; image-rendering:optimizeQuality; fill-rule:evenodd; clip-rule:evenodd" xmlns:xlink="http://www.w3.org/1999/xlink">
<g><path style="opacity:0.879" fill="#000000" d="M 44.5,3.5 C 46.5273,3.33788 48.5273,3.50454 50.5,4C 61.7519,13.7379 65.2519,25.5712 61,39.5C 58.2967,42.9339 54.7967,44.9339 50.5,45.5C 50.5,47.5 50.5,49.5 50.5,51.5C 55.5111,51.3341 60.5111,51.5007 65.5,52C 68.8034,53.0068 69.9701,55.1735 69,58.5C 66.1619,59.6753 63.3285,59.5086 60.5,58C 45.8861,55.4082 32.2194,57.7415 19.5,65C 17.4896,69.6089 16.9896,74.4423 18,79.5C 20.4815,81.3137 23.3148,81.9804 26.5,81.5C 26.5,83.5 26.5,85.5 26.5,87.5C 22.8183,87.6653 19.1516,87.4986 15.5,87C 14.5838,86.6258 13.7504,86.1258 13,85.5C 11.4021,77.9391 11.0687,70.2724 12,62.5C 21.1228,53.8588 31.9561,50.1921 44.5,51.5C 44.5,49.5 44.5,47.5 44.5,45.5C 35.7703,43.7678 31.4369,38.4345 31.5,29.5C 31.1108,25.542 32.1108,22.042 34.5,19C 35.8333,18.3333 37.1667,18.3333 38.5,19C 38.3797,24.5217 38.8797,30.0217 40,35.5C 40.3333,35.8333 40.6667,36.1667 41,36.5C 45.3333,20.5 49.6667,20.5 54,36.5C 56.3737,33.1995 57.0404,29.5328 56,25.5C 53.9334,20.3666 51.1001,15.6999 47.5,11.5C 44.5455,16.5088 41.5455,16.6754 38.5,12C 39.9273,8.74306 41.9273,5.90973 44.5,3.5 Z"/></g>
<g><path style="opacity:0.943" fill="#000000" d="M 74.5,58.5 C 78.3547,57.8454 81.1881,59.1788 83,62.5C 83.6667,69.5 83.6667,76.5 83,83.5C 82.6258,84.4162 82.1258,85.2496 81.5,86C 64.9282,87.4709 48.2616,87.9709 31.5,87.5C 31.5,85.5 31.5,83.5 31.5,81.5C 46.1705,81.6666 60.8371,81.4999 75.5,81C 76,80.5 76.5,80 77,79.5C 77.6667,75.5 77.6667,71.5 77,67.5C 75.659,65.7564 74.4923,63.9231 73.5,62C 73.6483,60.7441 73.9816,59.5774 74.5,58.5 Z"/></g>
</svg>
