<?xml version="1.0" standalone="no"?>
<!DOCTYPE svg PUBLIC "-//W3C//DTD SVG 20010904//EN"
 "http://www.w3.org/TR/2001/REC-SVG-20010904/DTD/svg10.dtd">
<svg version="1.0" xmlns="http://www.w3.org/2000/svg"
 width="96.000000pt" height="96.000000pt" viewBox="0 0 96.000000 96.000000"
 preserveAspectRatio="xMidYMid meet">

<g transform="translate(0.000000,96.000000) scale(0.100000,-0.100000)"
fill="#000000" stroke="none">
<path d="M191 806 c-87 -49 -50 -186 50 -186 53 0 106 59 97 107 -5 28 -51 24
-58 -6 -8 -33 -35 -49 -57 -35 -28 18 -23 57 10 72 20 10 27 20 25 35 -4 26
-33 32 -67 13z"/>
<path d="M431 806 c-87 -48 -50 -186 49 -186 51 0 100 49 100 99 0 75 -83 124
-149 87z m79 -61 c26 -32 -13 -81 -47 -59 -35 22 -23 74 17 74 10 0 23 -7 30
-15z"/>
<path d="M694 805 c-9 -23 3 -45 24 -45 42 0 55 -52 20 -74 -23 -14 -50 2 -58
35 -7 30 -53 34 -58 6 -6 -30 19 -77 49 -92 89 -47 179 38 137 130 -20 45
-102 73 -114 40z"/>
<path d="M191 566 c-87 -48 -50 -186 49 -186 51 0 100 49 100 99 0 75 -83 124
-149 87z m79 -61 c26 -32 -13 -81 -47 -59 -23 14 -28 41 -13 59 16 19 44 19
60 0z"/>
<path d="M429 565 c-29 -15 -53 -63 -47 -92 5 -28 51 -24 58 6 7 29 31 46 54
38 40 -15 30 -67 -15 -77 -30 -7 -34 -53 -6 -58 30 -6 77 19 92 49 48 92 -45
183 -136 134z"/>
<path d="M671 566 c-87 -48 -50 -186 49 -186 51 0 100 49 100 99 0 75 -83 124
-149 87z m79 -61 c26 -32 -13 -81 -47 -59 -23 14 -28 41 -13 59 16 19 44 19
60 0z"/>
<path d="M191 326 c-87 -49 -50 -186 50 -186 53 0 106 59 97 107 -5 28 -51 24
-58 -6 -10 -45 -62 -55 -77 -15 -8 23 9 47 38 54 35 8 34 54 -1 57 -14 2 -36
-3 -49 -11z"/>
<path d="M431 326 c-87 -48 -50 -186 49 -186 51 0 100 49 100 99 0 75 -83 124
-149 87z m79 -61 c15 -18 10 -45 -12 -59 -35 -22 -74 27 -48 59 16 19 44 19
60 0z"/>
<path d="M669 325 c-29 -15 -53 -63 -47 -92 5 -28 51 -24 58 6 7 29 31 46 54
38 40 -15 30 -67 -15 -77 -30 -7 -34 -53 -6 -58 30 -6 77 19 92 49 48 92 -45
183 -136 134z"/>
</g>
</svg>
