<?xml version="1.0" encoding="UTF-8"?>
<!DOCTYPE svg PUBLIC "-//W3C//DTD SVG 1.1//EN" "http://www.w3.org/Graphics/SVG/1.1/DTD/svg11.dtd">
<svg xmlns="http://www.w3.org/2000/svg" version="1.1" width="96px" height="96px" style="shape-rendering:geometricPrecision; text-rendering:geometricPrecision; image-rendering:optimizeQuality; fill-rule:evenodd; clip-rule:evenodd" xmlns:xlink="http://www.w3.org/1999/xlink">
<g><path style="opacity:0.837" fill="#000000" d="M 7.5,7.5 C 9.5273,7.33788 11.5273,7.50454 13.5,8C 19.6667,14.1667 25.8333,20.3333 32,26.5C 32.3333,25.1667 32.6667,23.8333 33,22.5C 36.5338,18.6311 40.3672,15.1311 44.5,12C 48.7806,10.5418 51.9473,11.7084 54,15.5C 54.3333,26.8333 54.6667,38.1667 55,49.5C 59.1772,55.487 61.0105,54.8203 60.5,47.5C 60.0739,43.0954 59.5739,38.7621 59,34.5C 60.7261,33.4238 62.5594,33.2571 64.5,34C 68.0591,42.1736 68.3925,50.5069 65.5,59C 66.2703,60.7748 67.437,62.2748 69,63.5C 70.5829,61.0887 71.5829,58.422 72,55.5C 72.2819,51.9605 72.7819,48.4605 73.5,45C 74.7115,42.7178 76.3781,42.2178 78.5,43.5C 80.581,52.5624 79.2476,61.0624 74.5,69C 78.6667,73.1667 82.8333,77.3333 87,81.5C 87.4955,83.4727 87.6621,85.4727 87.5,87.5C 85.4727,87.6621 83.4727,87.4955 81.5,87C 64.3333,69.8333 47.1667,52.6667 30,35.5C 29.6667,41.1667 29.3333,46.8333 29,52.5C 27.6124,53.5536 26.1124,53.7203 24.5,53C 23.5251,47.2588 23.1918,41.4254 23.5,35.5C 13.3139,33.1736 9.31394,37.1736 11.5,47.5C 11.539,50.887 11.8723,54.2203 12.5,57.5C 18.2455,58.0907 23.9121,58.9241 29.5,60C 35.3333,65.1667 41.1667,70.3333 47,75.5C 47.3333,70.8333 47.6667,66.1667 48,61.5C 50.2672,60.0652 52.2672,60.3985 54,62.5C 54.9148,68.9441 54.5815,75.2774 53,81.5C 50.7569,83.282 48.2569,83.782 45.5,83C 38.8737,78.0425 32.5404,72.7092 26.5,67C 21.2793,65.7677 15.9459,65.1011 10.5,65C 9.06919,64.5348 7.90252,63.7014 7,62.5C 5.38657,52.9339 5.05324,43.2672 6,33.5C 7.63735,31.1898 9.80402,29.6898 12.5,29C 15.8333,28.6667 19.1667,28.3333 22.5,28C 17.6667,23.1667 12.8333,18.3333 8,13.5C 7.50454,11.5273 7.33788,9.5273 7.5,7.5 Z M 33.5,27.5 C 38.7853,26.4271 43.2853,23.7605 47,19.5C 47.6667,26.8333 47.6667,34.1667 47,41.5C 42.2967,36.9645 37.7967,32.2979 33.5,27.5 Z"/></g>
<g><path style="opacity:0.802" fill="#000000" d="M 68.5,23.5 C 70.4672,23.2606 72.3005,23.5939 74,24.5C 76.7602,28.4037 77.5936,32.5704 76.5,37C 74.7412,37.7975 73.0745,37.6309 71.5,36.5C 70.1636,33.1617 68.8303,29.8284 67.5,26.5C 67.685,25.4163 68.0183,24.4163 68.5,23.5 Z"/></g>
</svg>
