<?xml version="1.0" standalone="no"?>
<!DOCTYPE svg PUBLIC "-//W3C//DTD SVG 20010904//EN"
 "http://www.w3.org/TR/2001/REC-SVG-20010904/DTD/svg10.dtd">
<svg version="1.0" xmlns="http://www.w3.org/2000/svg"
 width="96.000000pt" height="96.000000pt" viewBox="0 0 96.000000 96.000000"
 preserveAspectRatio="xMidYMid meet">

<g transform="translate(0.000000,96.000000) scale(0.100000,-0.100000)"
fill="#000000" stroke="none">
<path d="M389 867 c-87 -33 -179 -121 -179 -172 0 -32 27 -39 48 -14 59 71
111 116 148 127 94 28 169 8 239 -63 62 -62 75 -101 75 -231 0 -89 3 -105 30
-162 17 -35 30 -65 30 -67 0 -1 -9 -5 -21 -8 -29 -8 -22 -51 8 -55 28 -4 73
38 73 68 0 11 -12 44 -27 73 -24 45 -28 67 -33 172 -7 133 -23 183 -79 248
-68 77 -221 118 -312 84z"/>
<path d="M192 548 c-7 -7 -12 -36 -12 -65 0 -40 -8 -69 -30 -113 -36 -72 -37
-94 -5 -125 22 -23 32 -25 119 -25 l94 0 7 -29 c3 -15 20 -41 36 -57 25 -24
39 -29 79 -29 37 0 55 5 70 21 27 27 17 58 -16 50 -13 -3 -35 -9 -48 -12 -24
-6 -66 23 -66 46 0 6 43 10 109 10 84 0 111 3 121 15 10 12 10 18 0 30 -10 13
-50 15 -241 15 -126 0 -229 2 -229 4 0 2 13 33 30 68 41 87 41 208 0 208 -3 0
-11 -5 -18 -12z"/>
</g>
</svg>
