<?xml version="1.0" encoding="UTF-8"?>
<!DOCTYPE svg PUBLIC "-//W3C//DTD SVG 1.1//EN" "http://www.w3.org/Graphics/SVG/1.1/DTD/svg11.dtd">
<svg xmlns="http://www.w3.org/2000/svg" version="1.1" width="96px" height="96px" style="shape-rendering:geometricPrecision; text-rendering:geometricPrecision; image-rendering:optimizeQuality; fill-rule:evenodd; clip-rule:evenodd" xmlns:xlink="http://www.w3.org/1999/xlink">
<g><path style="opacity:0.827" fill="#000000" d="M 38.5,7.5 C 59.8152,4.5723 75.3152,12.5723 85,31.5C 92.2887,54.316 85.7887,71.816 65.5,84C 60.9167,84.9337 59.4167,83.1004 61,78.5C 78.8667,68.2454 84.5334,53.2454 78,33.5C 65.2042,13.242 48.2042,8.90866 27,20.5C 23.6509,19.2589 22.8176,17.0922 24.5,14C 28.8772,10.9748 33.5439,8.80814 38.5,7.5 Z"/></g>
<g><path style="opacity:0.825" fill="#000000" d="M 17.5,20.5 C 20.1268,20.2933 21.7935,21.46 22.5,24C 14.1219,35.4841 12.2886,47.9841 17,61.5C 23.9415,73.9781 34.6082,80.6448 49,81.5C 51.2822,82.7115 51.7822,84.3781 50.5,86.5C 33.5322,88.5996 20.6989,82.2662 12,67.5C 6,54.1667 6,40.8333 12,27.5C 13.6971,24.98 15.5305,22.6467 17.5,20.5 Z"/></g>
<g><path style="opacity:0.959" fill="#000000" d="M 34.5,31.5 C 36.7925,31.2436 38.9592,31.5769 41,32.5C 41.6667,42.5 41.6667,52.5 41,62.5C 38.6667,63.8333 36.3333,63.8333 34,62.5C 33.1925,52.0899 33.3592,41.7565 34.5,31.5 Z"/></g>
<g><path style="opacity:0.959" fill="#000000" d="M 54.5,31.5 C 56.7925,31.2436 58.9592,31.5769 61,32.5C 61.6667,42.5 61.6667,52.5 61,62.5C 58.6667,63.8333 56.3333,63.8333 54,62.5C 53.1925,52.0899 53.3592,41.7565 54.5,31.5 Z"/></g>
</svg>
