<?xml version="1.0" encoding="UTF-8"?>
<!DOCTYPE svg PUBLIC "-//W3C//DTD SVG 1.1//EN" "http://www.w3.org/Graphics/SVG/1.1/DTD/svg11.dtd">
<svg xmlns="http://www.w3.org/2000/svg" version="1.1" width="96px" height="96px" style="shape-rendering:geometricPrecision; text-rendering:geometricPrecision; image-rendering:optimizeQuality; fill-rule:evenodd; clip-rule:evenodd" xmlns:xlink="http://www.w3.org/1999/xlink">
<g><path style="opacity:0.887" fill="#000000" d="M 41.5,3.5 C 47.5154,2.80256 53.1821,3.80256 58.5,6.5C 61.4204,9.57118 60.9204,11.9045 57,13.5C 46.472,7.41633 39.472,10.083 36,21.5C 35.5002,31.828 35.3335,42.1613 35.5,52.5C 33.5,52.5 31.5,52.5 29.5,52.5C 29.3335,40.1622 29.5001,27.8288 30,15.5C 32.0188,9.64984 35.8522,5.64984 41.5,3.5 Z"/></g>
<g><path style="opacity:0.736" fill="#000000" d="M 7.5,9.5 C 13.7836,9.84248 14.9502,12.5091 11,17.5C 7.74682,20.4936 5.24682,19.9936 3.5,16C 4.25,13.4288 5.58333,11.2622 7.5,9.5 Z"/></g>
<g><path style="opacity:0.774" fill="#000000" d="M 82.5,9.5 C 88.2052,9.6916 91.7052,12.6916 93,18.5C 93.6667,22.5 93.6667,26.5 93,30.5C 92.0975,31.7014 90.9308,32.5348 89.5,33C 91.0163,37.1353 89.683,39.9687 85.5,41.5C 83.3911,41.2247 82.0578,40.058 81.5,38C 82.3661,34.2514 84.6994,32.2514 88.5,32C 88,31.5 87.5,31 87,30.5C 86.6667,27.1667 86.3333,23.8333 86,20.5C 84.3676,18.0666 82.8676,15.5666 81.5,13C 81.9891,11.8615 82.3225,10.6948 82.5,9.5 Z"/></g>
<g><path style="opacity:0.807" fill="#000000" d="M 18.5,13.5 C 21.5904,12.83 23.257,13.9967 23.5,17C 22.0961,19.6514 21.0961,22.4847 20.5,25.5C 21.0961,28.5153 22.0961,31.3486 23.5,34C 21.4437,38.447 18.9437,38.6136 16,34.5C 12.0538,26.8432 12.8871,19.8432 18.5,13.5 Z"/></g>
<g><path style="opacity:0.807" fill="#000000" d="M 72.5,13.5 C 78.6708,14.6115 81.6708,18.4449 81.5,25C 81.7761,30.5468 79.6094,34.7134 75,37.5C 72.836,37.3341 71.6694,36.1674 71.5,34C 72.9039,31.3486 73.9039,28.5153 74.5,25.5C 73.9039,22.4847 72.9039,19.6514 71.5,17C 71.6483,15.7441 71.9816,14.5774 72.5,13.5 Z"/></g>
<g><path style="opacity:0.888" fill="#000000" d="M 59.5,18.5 C 61.5,18.5 63.5,18.5 65.5,18.5C 65.6665,30.8378 65.4999,43.1712 65,55.5C 59.4415,66.8524 50.6082,70.3524 38.5,66C 34.3644,62.8315 34.531,60.3315 39,58.5C 49.3411,63.326 56.0077,60.326 59,49.5C 59.4998,39.172 59.6665,28.8387 59.5,18.5 Z"/></g>
<g><path style="opacity:0.785" fill="#000000" d="M 2.5,23.5 C 7.19399,23.3632 9.36066,25.6965 9,30.5C 10.6324,32.9334 12.1324,35.4334 13.5,38C 11.0487,42.477 8.21541,42.6436 5,38.5C 1.78458,33.8142 0.95125,28.8142 2.5,23.5 Z"/></g>
<g><path style="opacity:0.868" fill="#000000" d="M 18.5,43.5 C 20.1439,43.2865 21.6439,43.6198 23,44.5C 24.5799,65.7669 35.7466,74.6002 56.5,71C 67.0365,65.4389 72.0365,56.6056 71.5,44.5C 73.5,44.5 75.5,44.5 77.5,44.5C 78.7953,64.2863 69.7953,75.953 50.5,79.5C 50.5,81.8333 50.5,84.1667 50.5,86.5C 54.5,86.5 58.5,86.5 62.5,86.5C 62.5,88.5 62.5,90.5 62.5,92.5C 52.5,92.5 42.5,92.5 32.5,92.5C 32.5,90.5 32.5,88.5 32.5,86.5C 36.5,86.5 40.5,86.5 44.5,86.5C 44.5,84.1667 44.5,81.8333 44.5,79.5C 30.7088,78.182 21.8755,70.8487 18,57.5C 17.2266,52.7481 17.3932,48.0815 18.5,43.5 Z"/></g>
</svg>
