<?xml version="1.0" encoding="UTF-8"?>
<!DOCTYPE svg PUBLIC "-//W3C//DTD SVG 1.1//EN" "http://www.w3.org/Graphics/SVG/1.1/DTD/svg11.dtd">
<svg xmlns="http://www.w3.org/2000/svg" version="1.1" width="96px" height="96px" style="shape-rendering:geometricPrecision; text-rendering:geometricPrecision; image-rendering:optimizeQuality; fill-rule:evenodd; clip-rule:evenodd" xmlns:xlink="http://www.w3.org/1999/xlink">
<g><path style="opacity:0.849" fill="#000000" d="M 43.5,10.5 C 46.9297,10.1065 50.0964,10.7732 53,12.5C 56.8349,18.6658 59.5016,25.3324 61,32.5C 65.4631,27.7974 70.1298,27.4641 75,31.5C 77.1541,37.3977 77.6541,43.3977 76.5,49.5C 74.396,49.7989 72.396,49.4656 70.5,48.5C 70.9588,44.1581 70.4588,39.8248 69,35.5C 66.6255,37.539 64.6255,39.8723 63,42.5C 60.4378,49.9206 58.2711,57.4206 56.5,65C 64.1667,65.6667 71.8333,65.6667 79.5,65C 81.9918,62.1882 83.4918,59.0215 84,55.5C 79.7525,57.7066 75.5859,60.04 71.5,62.5C 68.6249,60.869 67.9583,58.5356 69.5,55.5C 73.372,53.0646 77.372,50.8979 81.5,49C 91.1036,47.4556 94.2703,51.2889 91,60.5C 89.224,63.9411 87.0574,67.1078 84.5,70C 88.6986,73.9207 90.0319,78.5873 88.5,84C 83.8333,84.6667 79.1667,84.6667 74.5,84C 73.4464,82.6124 73.2797,81.1124 74,79.5C 82.4877,77.7039 82.6543,75.5373 74.5,73C 56.1667,72.3333 37.8333,72.3333 19.5,73C 16.71,73.5609 14.3766,74.8942 12.5,77C 28.5,77.3333 44.5,77.6667 60.5,78C 63.473,79.2242 64.1397,81.2242 62.5,84C 43.5,84.6667 24.5,84.6667 5.5,84C 3.96807,78.5873 5.30141,73.9207 9.5,70C 4.17665,64.3772 2.34331,57.8772 4,50.5C 12.7477,47.6734 20.4144,49.6734 27,56.5C 27.4935,58.1341 27.6602,59.8008 27.5,61.5C 21.8427,60.6843 16.5093,58.6843 11.5,55.5C 11.0881,58.9079 12.0881,62.0746 14.5,65C 22.8533,65.8317 31.1866,65.6651 39.5,64.5C 37.5545,55.4976 34.7212,46.8309 31,38.5C 30.1475,36.8753 29.1475,36.5419 28,37.5C 26.8976,41.4159 26.231,45.4159 26,49.5C 24,52.1667 22,52.1667 20,49.5C 18.5976,42.2794 20.0976,35.7794 24.5,30C 28.3877,27.7775 31.8877,28.2775 35,31.5C 35.5803,23.4329 38.4137,16.4329 43.5,10.5 Z M 46.5,17.5 C 48.7082,18.8936 50.2082,20.8936 51,23.5C 52.8937,29.5746 54.3937,35.7413 55.5,42C 52.792,49.6655 50.792,57.4988 49.5,65.5C 48.5,65.5 47.5,65.5 46.5,65.5C 45.208,57.4988 43.208,49.6655 40.5,42C 41.2989,33.4968 43.2989,25.3301 46.5,17.5 Z"/></g>
</svg>
