<?xml version="1.0" standalone="no"?>
<!DOCTYPE svg PUBLIC "-//W3C//DTD SVG 20010904//EN"
 "http://www.w3.org/TR/2001/REC-SVG-20010904/DTD/svg10.dtd">
<svg version="1.0" xmlns="http://www.w3.org/2000/svg"
 width="96.000000pt" height="96.000000pt" viewBox="0 0 96.000000 96.000000"
 preserveAspectRatio="xMidYMid meet">

<g transform="translate(0.000000,96.000000) scale(0.100000,-0.100000)"
fill="#000000" stroke="none">
<path d="M422 870 c-17 -7 -22 -17 -20 -32 3 -21 7 -23 58 -20 65 3 109 -19
140 -70 71 -117 -71 -259 -187 -188 -40 24 -65 61 -72 108 -5 31 -10 37 -31
37 -23 0 -25 -3 -23 -48 2 -59 35 -114 90 -148 57 -36 154 -34 210 3 62 41 88
90 88 168 0 77 -26 127 -85 166 -42 28 -130 40 -168 24z"/>
<path d="M218 384 c-32 -17 -58 -62 -58 -99 0 -70 72 -150 164 -182 70 -24
241 -24 311 0 90 31 164 114 165 185 0 35 -27 80 -60 97 -61 32 -152 9 -120
-30 7 -9 29 -15 51 -15 106 0 86 -115 -29 -168 -50 -23 -70 -26 -162 -27 -93
0 -111 3 -162 27 -83 39 -122 112 -82 152 12 13 41 16 148 16 107 0 136 3 146
15 10 12 10 18 0 30 -18 21 -273 21 -312 -1z"/>
</g>
</svg>
