<?xml version="1.0" encoding="UTF-8"?>
<!DOCTYPE svg PUBLIC "-//W3C//DTD SVG 1.1//EN" "http://www.w3.org/Graphics/SVG/1.1/DTD/svg11.dtd">
<svg xmlns="http://www.w3.org/2000/svg" version="1.1" width="96px" height="96px" style="shape-rendering:geometricPrecision; text-rendering:geometricPrecision; image-rendering:optimizeQuality; fill-rule:evenodd; clip-rule:evenodd" xmlns:xlink="http://www.w3.org/1999/xlink">
<g><path style="opacity:0.829" fill="#000000" d="M 38.5,7.5 C 59.8152,4.5723 75.3152,12.5723 85,31.5C 91.8012,52.1536 86.6345,68.9869 69.5,82C 64.3333,83.5 62.5,81.6667 64,76.5C 80.4406,65.1636 84.7739,50.1636 77,31.5C 68.2118,17.8931 55.7118,12.3931 39.5,15C 34.0552,16.8883 29.0552,19.555 24.5,23C 21.4333,24.1642 19.7666,23.1642 19.5,20C 19.4393,18.2894 20.1059,16.956 21.5,16C 26.7308,12.1023 32.3975,9.26898 38.5,7.5 Z"/></g>
<g><path style="opacity:0.836" fill="#000000" d="M 9.5,33.5 C 11.1992,33.3398 12.8659,33.5065 14.5,34C 15.0814,34.8926 15.4148,35.8926 15.5,37C 13.5199,47.0029 14.5199,56.6696 18.5,66C 17.3881,70.4957 16.3881,74.9957 15.5,79.5C 20.0776,78.8976 24.5776,77.8976 29,76.5C 35.8519,79.503 43.0186,81.1697 50.5,81.5C 50.5,83.5 50.5,85.5 50.5,87.5C 42.8978,88.2734 35.7311,86.9401 29,83.5C 23.4998,85.0846 17.9998,86.7513 12.5,88.5C 9.5,87.5 7.5,85.5 6.5,82.5C 7.93854,76.9081 9.60521,71.4081 11.5,66C 9.74493,63.0699 8.57826,59.9033 8,56.5C 7.02584,48.6941 7.52584,41.0274 9.5,33.5 Z"/></g>
<g><path style="opacity:0.878" fill="#000000" d="M 31.5,33.5 C 39.9855,31.7185 43.9855,35.0518 43.5,43.5C 43.7243,51.2142 41.0576,57.7142 35.5,63C 33.5273,63.4955 31.5273,63.6621 29.5,63.5C 29.3379,61.4727 29.5045,59.4727 30,57.5C 32.4054,55.597 34.2388,53.2637 35.5,50.5C 28.3876,48.9515 25.8876,44.6182 28,37.5C 28.6897,35.6498 29.8564,34.3164 31.5,33.5 Z"/></g>
<g><path style="opacity:0.878" fill="#000000" d="M 55.5,33.5 C 63.9855,31.7185 67.9855,35.0518 67.5,43.5C 67.7243,51.2142 65.0576,57.7142 59.5,63C 57.5273,63.4955 55.5273,63.6621 53.5,63.5C 53.3379,61.4727 53.5045,59.4727 54,57.5C 56.4054,55.597 58.2388,53.2637 59.5,50.5C 52.3876,48.9515 49.8876,44.6182 52,37.5C 52.6897,35.6498 53.8564,34.3164 55.5,33.5 Z"/></g>
</svg>
