<?xml version="1.0" encoding="UTF-8"?>
<!DOCTYPE svg PUBLIC "-//W3C//DTD SVG 1.1//EN" "http://www.w3.org/Graphics/SVG/1.1/DTD/svg11.dtd">
<svg xmlns="http://www.w3.org/2000/svg" version="1.1" width="96px" height="96px" style="shape-rendering:geometricPrecision; text-rendering:geometricPrecision; image-rendering:optimizeQuality; fill-rule:evenodd; clip-rule:evenodd" xmlns:xlink="http://www.w3.org/1999/xlink">
<g><path style="opacity:0.82" fill="#000000" d="M 33.5,10.5 C 39.2449,10.2111 44.9116,10.7111 50.5,12C 54.5417,14.6936 54.3751,17.1936 50,19.5C 34.6086,14.5299 23.9419,19.5299 18,34.5C 17.5915,40.5102 17.7581,46.5102 18.5,52.5C 14.2488,53.2696 11.7488,51.6029 11,47.5C 8.36357,28.7413 15.8636,16.408 33.5,10.5 Z"/></g>
<g><path style="opacity:0.836" fill="#000000" d="M 59.5,22.5 C 61.4672,22.2606 63.3005,22.5939 65,23.5C 66.6079,26.3821 67.9413,29.3821 69,32.5C 69.4838,38.8714 69.4838,45.2047 69,51.5C 75.4081,57.2375 81.0748,63.5709 86,70.5C 87.1667,82 82,87.1667 70.5,86C 65.4123,82.9166 60.9123,79.0833 57,74.5C 56.3333,72.8333 56.3333,71.1667 57,69.5C 57.7247,68.9415 58.5581,68.6082 59.5,68.5C 63.9521,71.7784 68.2854,75.2784 72.5,79C 78.736,79.0892 80.5693,76.2559 78,70.5C 73.6667,66.1667 69.3333,61.8333 65,57.5C 52.227,71.5461 37.727,73.7128 21.5,64C 18.5634,60.7088 19.2301,58.5421 23.5,57.5C 28.6557,60.6648 34.3223,62.6648 40.5,63.5C 61.5228,58.1173 67.5228,45.4506 58.5,25.5C 58.685,24.4163 59.0183,23.4163 59.5,22.5 Z"/></g>
</svg>
