<?xml version="1.0" encoding="UTF-8"?>
<!DOCTYPE svg PUBLIC "-//W3C//DTD SVG 1.1//EN" "http://www.w3.org/Graphics/SVG/1.1/DTD/svg11.dtd">
<svg xmlns="http://www.w3.org/2000/svg" version="1.1" width="96px" height="96px" style="shape-rendering:geometricPrecision; text-rendering:geometricPrecision; image-rendering:optimizeQuality; fill-rule:evenodd; clip-rule:evenodd" xmlns:xlink="http://www.w3.org/1999/xlink">
<g><path style="opacity:0.833" fill="#000000" d="M 38.5,7.5 C 44.5092,7.33385 50.5092,7.50051 56.5,8C 57.4162,8.37424 58.2496,8.87424 59,9.5C 59.1734,13.7076 60.34,17.5409 62.5,21C 65.547,22.458 68.547,22.1247 71.5,20C 73.5,19.3333 75.5,19.3333 77.5,20C 82.9642,25.4215 85.7975,31.9215 86,39.5C 76.015,45.1128 76.015,50.7794 86,56.5C 85.4124,64.1769 82.2457,70.6769 76.5,76C 72.7515,75.8089 69.0849,74.9756 65.5,73.5C 59.854,75.8253 57.5206,74.1587 58.5,68.5C 63.4895,65.8355 68.4895,65.8355 73.5,68.5C 75.6672,66.1698 77.3338,63.5032 78.5,60.5C 69.2037,51.9999 69.2037,43.4999 78.5,35C 77.3749,31.8898 75.5415,29.3898 73,27.5C 61.5345,31.352 54.7012,27.352 52.5,15.5C 47.1975,14.6705 41.8642,14.1705 36.5,14C 34.9329,11.0944 35.5995,8.92771 38.5,7.5 Z"/></g>
<g><path style="opacity:0.827" fill="#000000" d="M 18.5,18.5 C 22.2364,19.199 25.9031,20.199 29.5,21.5C 35.0009,19.1496 37.5009,20.8163 37,26.5C 32.0282,29.0985 27.0282,29.0985 22,26.5C 19.9197,28.9928 18.0864,31.6595 16.5,34.5C 17.8333,36.5 19.5,38.1667 21.5,39.5C 25.4273,47.6575 23.7607,54.3242 16.5,59.5C 17.6032,62.7188 19.4366,65.3855 22,67.5C 34.1867,63.5334 41.0201,67.8668 42.5,80.5C 47.5444,80.4178 52.5444,80.2512 57.5,80C 60.2388,82.6216 59.9055,84.7883 56.5,86.5C 50.5,87.8333 44.5,87.8333 38.5,86.5C 37.3527,86.1822 36.5194,85.5156 36,84.5C 36.4069,74.5279 32.2402,71.3612 23.5,75C 21.4213,75.8077 19.4213,75.641 17.5,74.5C 12.7435,69.3241 9.91016,63.3241 9,56.5C 11.0136,54.155 13.347,52.155 16,50.5C 16.6667,48.5 16.6667,46.5 16,44.5C 13.6667,42.5 11.3333,40.5 9,38.5C 9.7238,30.7173 12.8905,24.0507 18.5,18.5 Z"/></g>
<g><path style="opacity:0.84" fill="#000000" d="M 41.5,31.5 C 60.7785,30.6097 67.2785,39.2764 61,57.5C 54.0554,64.0693 46.2221,65.2359 37.5,61C 30.9307,54.0554 29.7641,46.2221 34,37.5C 36.1141,34.8792 38.6141,32.8792 41.5,31.5 Z M 43.5,38.5 C 53.6591,37.1581 57.8257,41.4914 56,51.5C 53.1034,56.1549 48.9367,57.6549 43.5,56C 38.8451,53.1034 37.3451,48.9367 39,43.5C 40.025,41.313 41.525,39.6464 43.5,38.5 Z"/></g>
</svg>
