<?xml version="1.0" encoding="UTF-8"?>
<!DOCTYPE svg PUBLIC "-//W3C//DTD SVG 1.1//EN" "http://www.w3.org/Graphics/SVG/1.1/DTD/svg11.dtd">
<svg xmlns="http://www.w3.org/2000/svg" version="1.1" width="96px" height="96px" style="shape-rendering:geometricPrecision; text-rendering:geometricPrecision; image-rendering:optimizeQuality; fill-rule:evenodd; clip-rule:evenodd" xmlns:xlink="http://www.w3.org/1999/xlink">
<g><path style="opacity:0.846" fill="#000000" d="M 51.5,13.5 C 53.5273,13.3379 55.5273,13.5045 57.5,14C 61.6667,18.1667 65.8333,22.3333 70,26.5C 71.5,31.6667 69.6667,33.5 64.5,32C 62.3333,29.8333 60.1667,27.6667 58,25.5C 57.5012,29.4862 57.3345,33.4862 57.5,37.5C 42.8335,37.998 31.1669,43.998 22.5,55.5C 25.0626,55.4492 27.7293,55.7825 30.5,56.5C 31.8333,57.8333 31.8333,59.1667 30.5,60.5C 22.4498,64.8829 17.4498,71.5496 15.5,80.5C 13.604,81.4656 11.604,81.7989 9.5,81.5C 8.64617,52.354 22.6462,35.6873 51.5,31.5C 51.5,25.5 51.5,19.5 51.5,13.5 Z"/></g>
<g><path style="opacity:0.824" fill="#000000" d="M 72.5,33.5 C 74.1992,33.3398 75.8659,33.5065 77.5,34C 80,36.5 82.5,39 85,41.5C 85.6667,43.5 85.6667,45.5 85,47.5C 75.8333,56.6667 66.6667,65.8333 57.5,75C 55.5273,75.4955 53.5273,75.6621 51.5,75.5C 51.5,69.5 51.5,63.5 51.5,57.5C 46.4672,57.6721 41.4672,57.8388 36.5,58C 34.7888,56.8668 34.2888,55.3668 35,53.5C 36.8259,51.9262 38.9925,51.0929 41.5,51C 46.1667,50.3333 50.8333,50.3333 55.5,51C 57.2297,54.8515 58.0631,59.0182 58,63.5C 64.3481,57.3189 70.5148,50.9855 76.5,44.5C 75.1851,42.6841 73.6851,41.0175 72,39.5C 71.3224,37.4024 71.4891,35.4024 72.5,33.5 Z"/></g>
</svg>
