<?xml version="1.0" encoding="UTF-8"?>
<!DOCTYPE svg PUBLIC "-//W3C//DTD SVG 1.1//EN" "http://www.w3.org/Graphics/SVG/1.1/DTD/svg11.dtd">
<svg xmlns="http://www.w3.org/2000/svg" version="1.1" width="96px" height="96px" style="shape-rendering:geometricPrecision; text-rendering:geometricPrecision; image-rendering:optimizeQuality; fill-rule:evenodd; clip-rule:evenodd" xmlns:xlink="http://www.w3.org/1999/xlink">
<g><path style="opacity:0.935" fill="#000000" d="M 15.5,7.5 C 29.504,7.33343 43.504,7.50009 57.5,8C 62.3255,11.1573 64.3255,15.6573 63.5,21.5C 69.6208,21.0899 75.6208,21.5899 81.5,23C 83.0488,24.214 84.2155,25.714 85,27.5C 85.6667,31.5 85.6667,35.5 85,39.5C 83.3333,40.8333 81.6667,40.8333 80,39.5C 79.7031,36.086 79.0365,32.7527 78,29.5C 76.9326,28.8095 75.7659,28.3095 74.5,28C 63.8333,27.3333 53.1667,27.3333 42.5,28C 41.2341,28.3095 40.0674,28.8095 39,29.5C 37.3804,45.0991 37.047,60.7658 38,76.5C 38.3095,77.7659 38.8095,78.9326 39.5,80C 42.3926,81.1488 45.3926,81.6488 48.5,81.5C 48.5,83.5 48.5,85.5 48.5,87.5C 44.8183,87.6653 41.1516,87.4986 37.5,87C 35.714,86.2155 34.214,85.0488 33,83.5C 31.5545,74.2736 31.0545,64.9402 31.5,55.5C 28.7531,55.8134 26.0865,55.48 23.5,54.5C 22.1667,53.1667 22.1667,51.8333 23.5,50.5C 26.0865,49.52 28.7531,49.1866 31.5,49.5C 31.5,47.5 31.5,45.5 31.5,43.5C 28.7531,43.8134 26.0865,43.48 23.5,42.5C 22.1667,41.1667 22.1667,39.8333 23.5,38.5C 26.0865,37.52 28.7531,37.1866 31.5,37.5C 31.5,35.5 31.5,33.5 31.5,31.5C 28.7531,31.8134 26.0865,31.48 23.5,30.5C 22.1667,29.1667 22.1667,27.8333 23.5,26.5C 28.7154,26.3663 33.3821,24.8663 37.5,22C 44.1583,21.5004 50.825,21.3337 57.5,21.5C 57.7229,17.5839 56.0562,15.0839 52.5,14C 41.8333,13.3333 31.1667,13.3333 20.5,14C 19.2341,14.3095 18.0674,14.8095 17,15.5C 15.3804,31.0991 15.047,46.7658 16,62.5C 16.3095,63.7659 16.8095,64.9326 17.5,66C 20.5,66.8333 23.5,67.6667 26.5,68.5C 27.8333,69.8333 27.8333,71.1667 26.5,72.5C 22.878,73.6586 19.2113,73.8253 15.5,73C 13,71.8333 11.1667,70 10,67.5C 9.33333,49.5 9.33333,31.5 10,13.5C 11.3597,10.9774 13.193,8.97739 15.5,7.5 Z"/></g>
<g><path style="opacity:0.928" fill="#000000" d="M 45.5,39.5 C 54.1922,39.1686 62.8589,39.502 71.5,40.5C 72.8333,41.8333 72.8333,43.1667 71.5,44.5C 62.8333,45.8333 54.1667,45.8333 45.5,44.5C 44.4647,42.8716 44.4647,41.205 45.5,39.5 Z"/></g>
<g><path style="opacity:0.94" fill="#000000" d="M 80.5,43.5 C 82.1439,43.2865 83.6439,43.6198 85,44.5C 85.9613,57.5952 85.628,70.5952 84,83.5C 82.786,85.0488 81.286,86.2155 79.5,87C 71.1467,87.8317 62.8134,87.6651 54.5,86.5C 53.1667,85.1667 53.1667,83.8333 54.5,82.5C 61.1419,81.6691 67.8085,81.1691 74.5,81C 75.7659,80.6905 76.9326,80.1905 78,79.5C 79.1242,67.4948 79.9575,55.4948 80.5,43.5 Z"/></g>
<g><path style="opacity:0.928" fill="#000000" d="M 45.5,51.5 C 54.1922,51.1686 62.8589,51.502 71.5,52.5C 72.8333,53.8333 72.8333,55.1667 71.5,56.5C 62.8333,57.8333 54.1667,57.8333 45.5,56.5C 44.4647,54.8716 44.4647,53.205 45.5,51.5 Z"/></g>
<g><path style="opacity:0.928" fill="#000000" d="M 45.5,63.5 C 54.1922,63.1686 62.8589,63.502 71.5,64.5C 72.8333,65.8333 72.8333,67.1667 71.5,68.5C 62.8333,69.8333 54.1667,69.8333 45.5,68.5C 44.4647,66.8716 44.4647,65.205 45.5,63.5 Z"/></g>
</svg>
