<?xml version="1.0" encoding="UTF-8"?>
<!DOCTYPE svg PUBLIC "-//W3C//DTD SVG 1.1//EN" "http://www.w3.org/Graphics/SVG/1.1/DTD/svg11.dtd">
<svg xmlns="http://www.w3.org/2000/svg" version="1.1" width="96px" height="96px" style="shape-rendering:geometricPrecision; text-rendering:geometricPrecision; image-rendering:optimizeQuality; fill-rule:evenodd; clip-rule:evenodd" xmlns:xlink="http://www.w3.org/1999/xlink">
<g><path style="opacity:0.938" fill="#000000" d="M 13.5,11.5 C 35.8358,11.3334 58.1692,11.5 80.5,12C 83.3333,13.5 85.5,15.6667 87,18.5C 87.8299,24.1959 87.6632,29.8625 86.5,35.5C 84.3561,36.9535 82.5227,36.6201 81,34.5C 80.6667,29.8333 80.3333,25.1667 80,20.5C 78.8289,19.1068 77.3289,18.2735 75.5,18C 56.8333,17.3333 38.1667,17.3333 19.5,18C 16.3333,18.5 14.5,20.3333 14,23.5C 13.6667,34.5 13.3333,45.5 13,56.5C 11.6124,57.5536 10.1124,57.7203 8.5,57C 7.34462,43.9086 7.17795,30.742 8,17.5C 9.35968,14.9774 11.193,12.9774 13.5,11.5 Z M 35.5,30.5 C 38.1662,30.0658 39.3329,31.0658 39,33.5C 35.4034,35.0661 34.2368,34.0661 35.5,30.5 Z"/></g>
<g><path style="opacity:0.827" fill="#000000" d="M 32.5,23.5 C 43.1566,21.6581 47.6566,25.9915 46,36.5C 44.2003,40.235 41.2003,41.9017 37,41.5C 29.6739,40.8743 26.6739,36.8743 28,29.5C 28.9793,27.0324 30.4793,25.0324 32.5,23.5 Z M 35.5,30.5 C 34.2368,34.0661 35.4034,35.0661 39,33.5C 39.3329,31.0658 38.1662,30.0658 35.5,30.5 Z"/></g>
<g><path style="opacity:0.843" fill="#000000" d="M 82.5,42.5 C 84.1439,42.2865 85.6439,42.6198 87,43.5C 87.6667,54.5 87.6667,65.5 87,76.5C 85.5,79.3333 83.3333,81.5 80.5,83C 58.4962,83.6446 36.4962,83.9779 14.5,84C 6.68243,80.5474 4.8491,75.0474 9,67.5C 15.199,61.6356 21.0323,55.4689 26.5,49C 29.8333,47 33.1667,47 36.5,49C 42.3333,55.5 48.1667,62 54,68.5C 56.4356,73.3973 54.9356,75.564 49.5,75C 44.0296,67.6966 38.0296,60.8632 31.5,54.5C 25.3161,60.8498 19.3161,67.3498 13.5,74C 14.3333,75.5 15.5,76.6667 17,77.5C 37.427,76.6728 57.927,76.1728 78.5,76C 78.8333,75.6667 79.1667,75.3333 79.5,75C 74.0296,67.6966 68.0296,60.8632 61.5,54.5C 59.684,56.8169 57.684,58.9835 55.5,61C 52.4333,62.1642 50.7666,61.1642 50.5,58C 56.4613,45.0384 63.9613,44.2051 73,55.5C 75.6667,58.8333 78.3333,62.1667 81,65.5C 81.1994,57.7548 81.6994,50.0881 82.5,42.5 Z"/></g>
</svg>
