<?xml version="1.0" encoding="UTF-8"?>
<!DOCTYPE svg PUBLIC "-//W3C//DTD SVG 1.1//EN" "http://www.w3.org/Graphics/SVG/1.1/DTD/svg11.dtd">
<svg xmlns="http://www.w3.org/2000/svg" version="1.1" width="96px" height="96px" style="shape-rendering:geometricPrecision; text-rendering:geometricPrecision; image-rendering:optimizeQuality; fill-rule:evenodd; clip-rule:evenodd" xmlns:xlink="http://www.w3.org/1999/xlink">
<g><path style="opacity:0.84" fill="#000000" d="M 55.5,3.5 C 57.3084,3.49136 58.9751,3.99136 60.5,5C 63.3333,7.83333 66.1667,10.6667 69,13.5C 69.7429,15.4406 69.5762,17.2739 68.5,19C 70.8333,19.3333 73.1667,19.6667 75.5,20C 81.5891,25.4169 86.9224,31.4169 91.5,38C 87.5919,43.9139 82.9253,49.2473 77.5,54C 73.3195,55.1197 71.4862,53.6197 72,49.5C 75.8333,45.6667 79.6667,41.8333 83.5,38C 79.5,34 75.5,30 71.5,26C 66.8452,25.5008 62.1785,25.3342 57.5,25.5C 56.7046,21.406 58.038,18.2393 61.5,16C 60,14.5 58.5,13 57,11.5C 48.3333,20.1667 39.6667,28.8333 31,37.5C 32.5591,42.0149 34.0591,46.6815 35.5,51.5C 35.1012,53.1966 34.6012,54.8632 34,56.5C 30.1174,60.0504 25.9507,63.2171 21.5,66C 17.2975,66.2943 15.9642,64.461 17.5,60.5C 20.5202,57.6454 23.6868,54.9787 27,52.5C 27.6667,51.1667 27.6667,49.8333 27,48.5C 25.6865,45.3757 24.5198,42.209 23.5,39C 23.796,37.1118 24.296,35.2784 25,33.5C 35.0618,23.2706 45.2284,13.2706 55.5,3.5 Z"/></g>
<g><path style="opacity:0.828" fill="#000000" d="M 41.5,31.5 C 43.1992,31.3398 44.8659,31.5065 46.5,32C 54.6667,40.1667 62.8333,48.3333 71,56.5C 71.6667,57.8333 71.6667,59.1667 71,60.5C 67.1118,65.5729 62.2785,69.2396 56.5,71.5C 52.0626,69.9304 47.7293,68.4304 43.5,67C 37.3333,74.5 31.1667,82 25,89.5C 18.8691,94.1956 12.3691,94.6956 5.5,91C -1.06897,81.0293 0.597699,72.696 10.5,66C 13.5527,64.9277 15.5527,65.9277 16.5,69C 14.3851,72.1185 11.8851,74.9518 9,77.5C 7.5,84.6667 10.3333,87.5 17.5,86C 24.9757,78.037 31.9757,69.7037 38.5,61C 44.8903,59.0106 50.7236,60.1772 56,64.5C 59.2227,62.9641 61.2227,60.6308 62,57.5C 55,50.5 48,43.5 41,36.5C 40.3603,34.735 40.5269,33.0683 41.5,31.5 Z"/></g>
<g><path style="opacity:0.765" fill="#000000" d="M 11.5,77.5 C 13.5,77.5 15.5,77.5 17.5,77.5C 17.5,79.5 17.5,81.5 17.5,83.5C 15.5,83.5 13.5,83.5 11.5,83.5C 11.5,81.5 11.5,79.5 11.5,77.5 Z"/></g>
</svg>
