<?xml version="1.0" encoding="UTF-8"?>
<!DOCTYPE svg PUBLIC "-//W3C//DTD SVG 1.1//EN" "http://www.w3.org/Graphics/SVG/1.1/DTD/svg11.dtd">
<svg xmlns="http://www.w3.org/2000/svg" version="1.1" width="96px" height="96px" style="shape-rendering:geometricPrecision; text-rendering:geometricPrecision; image-rendering:optimizeQuality; fill-rule:evenodd; clip-rule:evenodd" xmlns:xlink="http://www.w3.org/1999/xlink">
<g><path style="opacity:0.839" fill="#000000" d="M 39.5,5.5 C 44.8746,5.17182 50.2079,5.50515 55.5,6.5C 56.6117,10.4598 54.945,12.1265 50.5,11.5C 50.5,12.8333 50.5,14.1667 50.5,15.5C 57.8598,15.8422 64.5265,18.1755 70.5,22.5C 72.9202,19.9228 75.9202,18.9228 79.5,19.5C 80.0772,23.0798 79.0772,26.0798 76.5,28.5C 84.8254,42.0213 85.6587,56.0213 79,70.5C 77.6078,73.3942 75.4411,75.3942 72.5,76.5C 70.2606,76.4257 69.2606,75.259 69.5,73C 72.3119,68.5361 74.4786,63.7028 76,58.5C 78.7123,40.5698 71.5457,28.7365 54.5,23C 49.8333,22.3333 45.1667,22.3333 40.5,23C 37.5698,24.3179 34.5698,24.9846 31.5,25C 28.9199,22.8797 28.9199,20.713 31.5,18.5C 35.6044,16.4642 39.9378,15.4642 44.5,15.5C 44.5,14.1667 44.5,12.8333 44.5,11.5C 39.4673,12.0623 37.8007,10.0623 39.5,5.5 Z"/></g>
<g><path style="opacity:0.823" fill="#000000" d="M 18.5,29.5 C 21.3523,29.3524 23.019,30.6857 23.5,33.5C 16.6748,45.6073 16.8415,57.6073 24,69.5C 32.118,78.7622 42.2847,82.2622 54.5,80C 57.4302,78.6821 60.4302,78.0154 63.5,78C 65.6983,79.67 66.0317,81.67 64.5,84C 39.2604,93.1259 21.7604,85.2926 12,60.5C 9.68884,49.0851 11.8555,38.7518 18.5,29.5 Z"/></g>
<g><path style="opacity:0.826" fill="#000000" d="M 57.5,35.5 C 59.5,35.5 61.5,35.5 63.5,35.5C 63.6621,37.5273 63.4955,39.5273 63,41.5C 60,44.5 57,47.5 54,50.5C 54.3697,55.2948 52.203,57.6281 47.5,57.5C 45.3066,57.6738 43.4733,57.0071 42,55.5C 39.7026,48.987 41.8693,45.487 48.5,45C 51.7044,41.9641 54.7044,38.7974 57.5,35.5 Z"/></g>
</svg>
