<?xml version="1.0" encoding="UTF-8"?>
<!DOCTYPE svg PUBLIC "-//W3C//DTD SVG 1.1//EN" "http://www.w3.org/Graphics/SVG/1.1/DTD/svg11.dtd">
<svg xmlns="http://www.w3.org/2000/svg" version="1.1" width="96px" height="96px" style="shape-rendering:geometricPrecision; text-rendering:geometricPrecision; image-rendering:optimizeQuality; fill-rule:evenodd; clip-rule:evenodd" xmlns:xlink="http://www.w3.org/1999/xlink">
<g><path style="opacity:0.844" fill="#000000" d="M 62.5,11.5 C 67.2697,10.4646 70.4363,12.1312 72,16.5C 72.9667,38.2307 72.6333,59.8973 71,81.5C 68.4209,83.3467 65.5876,83.8467 62.5,83C 57.2823,79.2836 52.949,74.7836 49.5,69.5C 49.6082,68.5581 49.9415,67.7247 50.5,67C 52.1667,66.3333 53.8333,66.3333 55.5,67C 58.9493,69.4816 62.116,72.315 65,75.5C 65.6667,56.8333 65.6667,38.1667 65,19.5C 59.1667,24.6667 53.3333,29.8333 47.5,35C 41.9171,35.1911 36.4171,35.6911 31,36.5C 29.4137,43.0573 29.0804,49.724 30,56.5C 33.1494,58.3625 36.6494,59.0291 40.5,58.5C 40.334,53.1563 40.5006,47.8229 41,42.5C 42.4178,40.6368 44.2511,40.1368 46.5,41C 47.4825,49.081 47.8158,57.2476 47.5,65.5C 41.1579,65.6662 34.8246,65.4995 28.5,65C 25.3374,63.5202 23.504,61.0202 23,57.5C 22.3333,50.5 22.3333,43.5 23,36.5C 23.6898,33.804 25.1898,31.6374 27.5,30C 33.0845,28.8144 38.7512,28.1478 44.5,28C 50.696,22.634 56.696,17.134 62.5,11.5 Z"/></g>
<g><path style="opacity:0.828" fill="#000000" d="M 79.5,32.5 C 80.7206,33.0283 81.8873,33.695 83,34.5C 86.3333,43.1667 86.3333,51.8333 83,60.5C 80.0387,62.9515 77.872,62.2848 76.5,58.5C 79.1667,51.1667 79.1667,43.8333 76.5,36.5C 76.7867,34.5567 77.7867,33.2233 79.5,32.5 Z"/></g>
</svg>
