<?xml version="1.0" standalone="no"?>
<!DOCTYPE svg PUBLIC "-//W3C//DTD SVG 20010904//EN"
 "http://www.w3.org/TR/2001/REC-SVG-20010904/DTD/svg10.dtd">
<svg version="1.0" xmlns="http://www.w3.org/2000/svg"
 width="96.000000pt" height="96.000000pt" viewBox="0 0 96.000000 96.000000"
 preserveAspectRatio="xMidYMid meet">

<g transform="translate(0.000000,96.000000) scale(0.100000,-0.100000)"
fill="#000000" stroke="none">
<path d="M444 818 c-16 -12 -63 -53 -105 -90 l-77 -68 -72 0 c-66 0 -74 -2
-101 -29 -29 -29 -29 -30 -29 -150 0 -112 2 -122 24 -148 23 -27 28 -28 118
-28 l93 0 3 111 c2 90 0 113 -13 124 -12 10 -18 10 -30 0 -11 -9 -15 -34 -15
-96 l0 -84 -47 0 c-73 0 -74 2 -71 126 l3 109 79 3 c89 3 64 -11 229 132 l47
42 0 -292 0 -291 -60 52 c-60 52 -90 59 -90 20 0 -21 130 -141 153 -141 7 0
23 7 35 16 22 15 22 15 22 344 0 329 0 329 -22 344 -30 21 -40 20 -74 -6z"/>
<path d="M697 713 c-11 -11 -8 -35 11 -80 19 -48 39 -61 60 -39 13 13 13 20
-3 58 -25 63 -47 83 -68 61z"/>
<path d="M602 607 c-8 -9 -7 -24 3 -52 8 -22 14 -56 14 -75 0 -19 -6 -53 -14
-75 -10 -28 -11 -43 -3 -52 35 -43 72 22 72 127 0 105 -37 170 -72 127z"/>
<path d="M746 508 c-2 -7 -7 -39 -10 -72 -4 -32 -16 -80 -27 -106 -24 -56 -22
-85 6 -85 37 0 95 169 84 245 -4 27 -46 42 -53 18z"/>
</g>
</svg>
