<?xml version="1.0" encoding="UTF-8"?>
<!DOCTYPE svg PUBLIC "-//W3C//DTD SVG 1.1//EN" "http://www.w3.org/Graphics/SVG/1.1/DTD/svg11.dtd">
<svg xmlns="http://www.w3.org/2000/svg" version="1.1" width="96px" height="96px" style="shape-rendering:geometricPrecision; text-rendering:geometricPrecision; image-rendering:optimizeQuality; fill-rule:evenodd; clip-rule:evenodd" xmlns:xlink="http://www.w3.org/1999/xlink">
<g><path style="opacity:0.77" fill="#000000" d="M 22.5,10.5 C 27.5097,9.67392 29.843,11.8406 29.5,17C 29.4148,18.1074 29.0814,19.1074 28.5,20C 26.5594,20.7429 24.7261,20.5762 23,19.5C 21.6427,16.4725 21.4761,13.4725 22.5,10.5 Z"/></g>
<g><path style="opacity:0.771" fill="#000000" d="M 44.5,12.5 C 49.7365,12.9902 50.9032,15.6569 48,20.5C 45.0267,23.4388 42.5267,23.1055 40.5,19.5C 41.5923,16.9763 42.9257,14.643 44.5,12.5 Z"/></g>
<g><path style="opacity:0.772" fill="#000000" d="M 5.5,23.5 C 12.08,22.7426 14.7466,25.4092 13.5,31.5C 11.0394,32.3071 8.70607,31.8071 6.5,30C 4.31619,28.1024 3.98286,25.9358 5.5,23.5 Z"/></g>
<g><path style="opacity:0.835" fill="#000000" d="M 26.5,23.5 C 35.132,21.6221 42.132,24.1221 47.5,31C 59.237,29.5349 67.9037,33.8682 73.5,44C 73.3341,46.164 72.1674,47.3306 70,47.5C 66.1493,44.3357 61.9826,41.5024 57.5,39C 43.7335,37.3962 36.4001,43.5628 35.5,57.5C 23.0218,56.4611 18.5218,61.7944 22,73.5C 25.0346,75.9705 28.5346,77.3038 32.5,77.5C 32.5,79.5 32.5,81.5 32.5,83.5C 17.5398,83.6992 11.3732,76.3659 14,61.5C 16.814,54.5102 21.9807,51.1769 29.5,51.5C 30.4904,44.0047 34.157,38.1714 40.5,34C 36.3292,30.2278 31.6625,29.5612 26.5,32C 24.9512,33.214 23.7845,34.714 23,36.5C 22.6667,39.8333 22.3333,43.1667 22,46.5C 20,47.8333 18,47.8333 16,46.5C 13.6054,35.9649 17.1054,28.2982 26.5,23.5 Z"/></g>
<g><path style="opacity:0.77" fill="#000000" d="M 6.5,43.5 C 12.1581,42.6794 13.8248,44.846 11.5,50C 8.63368,51.2759 5.80035,51.4426 3,50.5C 1.6894,46.7381 2.85606,44.4047 6.5,43.5 Z"/></g>
<g><path style="opacity:0.898" fill="#000000" d="M 69.5,51.5 C 85.9847,49.8174 93.1514,57.1508 91,73.5C 89.1667,78 86,81.1667 81.5,83C 67.4881,83.8328 53.4881,83.6661 39.5,82.5C 38.1667,81.1667 38.1667,79.8333 39.5,78.5C 51.4861,77.6674 63.4861,77.1674 75.5,77C 84.244,75.0105 86.744,69.8438 83,61.5C 79.0322,58.5476 74.5322,57.2143 69.5,57.5C 69.5,55.5 69.5,53.5 69.5,51.5 Z"/></g>
</svg>
