<?xml version="1.0" standalone="no"?>
<!DOCTYPE svg PUBLIC "-//W3C//DTD SVG 20010904//EN"
 "http://www.w3.org/TR/2001/REC-SVG-20010904/DTD/svg10.dtd">
<svg version="1.0" xmlns="http://www.w3.org/2000/svg"
 width="96.000000pt" height="96.000000pt" viewBox="0 0 96.000000 96.000000"
 preserveAspectRatio="xMidYMid meet">

<g transform="translate(0.000000,96.000000) scale(0.100000,-0.100000)"
fill="#000000" stroke="none">
<path d="M432 825 c-22 -19 -50 -55 -63 -79 l-23 -44 -49 24 c-70 36 -97 30
-126 -30 -18 -36 -22 -53 -14 -65 17 -27 45 -19 57 16 16 46 20 47 66 22 l41
-23 -6 -51 c-4 -27 -8 -51 -10 -53 -1 -1 -26 9 -56 22 -30 14 -77 28 -104 31
-42 6 -55 4 -75 -13 -22 -18 -25 -28 -24 -84 1 -83 39 -182 72 -186 33 -5 37
21 12 80 -12 28 -23 72 -24 97 l-1 46 38 -2 c46 -3 117 -33 146 -62 14 -14 21
-34 21 -60 0 -47 32 -154 60 -200 12 -18 19 -35 16 -38 -10 -10 -78 20 -122
53 -50 38 -77 41 -82 8 -2 -17 11 -31 59 -63 85 -57 150 -74 263 -69 76 3 102
9 159 35 119 56 212 170 244 297 38 156 -33 204 -196 130 -30 -13 -55 -23 -57
-21 -2 1 -4 27 -6 56 -3 52 -2 55 30 74 l34 20 23 -29 c23 -28 24 -28 42 -11
17 17 17 19 -2 55 -25 45 -57 52 -114 23 -22 -12 -42 -21 -45 -21 -2 0 -16 20
-30 44 -25 43 -88 106 -106 106 -6 0 -27 -16 -48 -35z m87 -78 c50 -74 73
-158 73 -272 1 -108 8 -131 39 -114 14 7 19 21 19 49 0 27 7 47 21 61 29 29
100 59 146 62 l38 2 -2 -47 c-2 -63 -41 -146 -99 -208 -53 -56 -92 -83 -153
-105 l-42 -15 20 34 c24 39 27 72 7 79 -18 7 -36 -8 -70 -61 -15 -24 -33 -42
-39 -39 -19 5 -76 106 -93 162 -21 73 -20 226 4 301 19 61 75 154 92 154 5 0
22 -19 39 -43z"/>
</g>
</svg>
